<?xml version="1.0" encoding="utf-8"?>
<!-- Generator: Adobe Illustrator 23.0.5, SVG Export Plug-In . SVG Version: 6.00 Build 0)  -->
<svg version="1.1" xmlns="http://www.w3.org/2000/svg" xmlns:xlink="http://www.w3.org/1999/xlink" x="0px" y="0px"
	 viewBox="0 0 542.3 500" style="enable-background:new 0 0 542.3 500;" xml:space="preserve">
<style type="text/css">
	.st0{display:none;}
	.st1{display:inline;fill:#EBEBEB;}
	.st2{fill:#263238;}
	.st3{fill:#E8505B;}
	.st4{fill:#200000;}
	.st5{fill:#F5F5F5;}
	.st6{fill:#FFFFFF;}
	.st7{fill:#EBEBEB;}
	.st8{fill:#FDE900;}
	.st9{opacity:0.6;}
	.st10{fill:#FAFAFA;}
	.st11{opacity:0.4;}
	.st12{fill:#FFBE9D;}
	.st13{opacity:0.2;}
	.st14{fill:#E0E0E0;}
	.st15{fill:#455A64;}
	.st16{opacity:0.3;}
	.st17{fill:#EB996E;}
	.st18{fill:none;stroke:#263238;stroke-width:5.000000e-02;stroke-miterlimit:10;}
</style>
<g id="Background_Complete">
</g>
<g id="Background_Simple" class="st0">
	<path class="st1" d="M490.1,166.5c-12.1-46-39.1-80.3-76.9-96.6c-37.8-16.3-92-0.2-118.2,31.6c-19.2,23.2-25.1,55.8-46.5,77
		c-19.6,19.3-48.9,25.5-76.4,24.9c-27.5-0.6-54.6-7.2-82-9.3c-27.4-2.2-56.7,0.6-79.2,16.5c-29.5,20.8-47.1,71.6-43.7,107.6
		c4.7,49.6,37.8,99.8,83.2,110.5l298,4.2c39.1-1,82-38.2,102.7-74.2c11-19.2,20.8-23.7,31.1-58.8
		C498.9,242.7,500.6,206.3,490.1,166.5z"/>
</g>
<g id="Floor">
	<g>
		<g>
			<g>
				<path class="st2" d="M575.9,993.1c0,0.1-156.7,0.3-350,0.3c-193.4,0-350.1-0.1-350.1-0.3c0-0.1,156.7-0.3,350.1-0.3
					C419.2,992.9,575.9,993,575.9,993.1z"/>
			</g>
		</g>
	</g>
</g>
<g id="Plant">
	<g>
		<g>
			<g>
				<g>
					<g>
						<path class="st3" d="M15.7,988.7c13.5-9.3,16.6-26.8,16.1-42.4c-0.1-2.6,0.2-5.4-1-7.7c-1.2-2.3-4.1-3.9-6.5-2.8
							c-1.9,0.9-2.8,3.2-3.9,5c-1.5,2.5-3.6,4.5-6.2,5.8c-1.7,0.9-3.7,1.4-5.4,0.5c-2.3-1.3-2.5-4.4-2.5-7c0-4.8,0.1-9.7,0.1-14.5
							c0-2.6,0-5.3-0.8-7.7c-0.8-2.5-2.6-4.8-5.1-5.5c-2.5-0.7-5.5,0.7-6.1,3.3c-0.2,1.1,0,2.2-0.1,3.2c-0.1,1.1-0.6,2.3-1.6,2.6
							c-1,0.3-2.1-0.4-2.9-1.2c-2.7-2.6-4.5-6-6.2-9.4s-3.3-6.8-5.8-9.7c-2.4-2.9-5.8-5.2-9.5-5.4c-3.7-0.2-7.7,2.1-8.7,5.7
							c-1,3.7,1.2,7.4,3.5,10.4c3.4,4.4,7.5,8.3,12,11.6c0.8,0.6,1.7,1.2,2,2.2c0.6,1.7-1.1,3.5-2.8,4c-1.9,0.6-4,0.4-6.1,0.7
							c-2,0.2-4.2,1.1-5,3c-1.1,2.7,1.1,5.4,3.3,7.3c4.4,3.7,9.4,6.6,14.7,8.5c1.9,0.7,3.9,1.3,5.5,2.7c1.5,1.4,2.5,3.7,1.5,5.5
							c-0.9,1.8-3.3,2.4-5.3,2c-2-0.4-3.8-1.5-5.7-2.2c-3.6-1.4-8.2-1.1-10.5,2c-1.5,2-1.7,4.9-0.9,7.3c0.8,2.4,2.3,4.5,3.9,6.4
							c5.7,6.7,13,12.2,21.3,15.1C-0.3,990.9,7.4,991.7,15.7,988.7"/>
					</g>
				</g>
			</g>
		</g>
		<g>
			<g>
				<g>
					<g>
						<g>
							<path class="st2" d="M14.8,993.1c-0.5-6.2-0.8-6.3-3.1-14.2c-2.3-7.9-5.5-16.4-9.2-25.1c-0.9-2.2-1.8-4.3-2.7-6.5
								c-0.9-2.1-1.8-4.2-2.8-6.2c-2-4-4.2-7.7-6.4-11.2c-2.2-3.5-4.4-6.7-6.6-9.6c-2.1-3-4.1-5.7-6.1-8.1c-3.9-4.8-7.5-8.4-10-10.7
								c-1.3-1.2-2.3-2-3-2.6c-0.3-0.3-0.6-0.5-0.8-0.7c-0.2-0.1-0.3-0.2-0.3-0.2c0,0,0.1,0.1,0.3,0.2c0.2,0.2,0.4,0.4,0.8,0.7
								c0.7,0.6,1.7,1.5,2.9,2.7c2.5,2.4,6.1,5.9,9.9,10.8c1.9,2.4,3.9,5.2,6,8.1c2.1,3,4.3,6.2,6.5,9.6c2.2,3.5,4.4,7.1,6.4,11.1
								c1,2,1.9,4.1,2.8,6.2c0.9,2.1,1.8,4.3,2.7,6.5c3.7,8.7,6.9,17.2,9.2,25.1c2.3,7.9,2.6,8,3.2,14.2"/>
						</g>
					</g>
				</g>
			</g>
		</g>
		<g>
			<g>
				<g>
					<g>
						<g>
							<path class="st2" d="M-3.2,941c0,0,0.1-0.4,0.3-1.1c0.1-0.7,0.3-1.8,0.5-3.1c0.4-2.6,0.8-6.2,1.2-10.1
								c0.4-4,0.9-7.5,1.3-10.1c0.2-1.3,0.4-2.3,0.5-3c0.1-0.7,0.2-1.1,0.1-1.1c0,0-0.1,0.4-0.3,1.1c-0.2,0.7-0.4,1.7-0.7,3
								c-0.5,2.6-1,6.2-1.4,10.1c-0.4,3.9-0.8,7.5-1.1,10.2c-0.1,1.2-0.3,2.2-0.3,3.1C-3.2,940.6-3.2,941-3.2,941z"/>
						</g>
					</g>
				</g>
			</g>
		</g>
		<g>
			<g>
				<g>
					<g>
						<g>
							<path class="st2" d="M-36.6,934.7c0,0,0.5,0.1,1.3,0.2c0.9,0.1,2.1,0.2,3.6,0.4c3.1,0.3,7.3,1,11.9,1.8
								c4.6,0.9,8.8,1.9,11.7,2.7c1.5,0.4,2.7,0.7,3.5,1c0.8,0.2,1.3,0.4,1.3,0.3c0,0-0.4-0.2-1.2-0.5c-0.8-0.3-2-0.7-3.5-1.1
								c-3-0.9-7.1-1.9-11.7-2.8c-4.6-0.9-8.9-1.5-11.9-1.7c-1.5-0.1-2.8-0.2-3.7-0.2C-36.1,934.6-36.6,934.6-36.6,934.7z"/>
						</g>
					</g>
				</g>
			</g>
		</g>
		<g>
			<g>
				<g>
					<g>
						<g>
							<path class="st2" d="M11.2,978.3c0,0,0.1-0.1,0.2-0.4c0.2-0.3,0.3-0.7,0.6-1.2c0.5-1.1,1.2-2.6,2-4.5
								c1.6-3.8,3.7-9.2,5.9-15.1c2.2-5.9,4.2-11.3,5.8-15.2c0.8-1.9,1.4-3.4,1.8-4.6c0.2-0.5,0.4-0.9,0.5-1.2
								c0.1-0.3,0.2-0.4,0.1-0.4c0,0-0.1,0.1-0.2,0.4c-0.2,0.3-0.3,0.7-0.6,1.2c-0.5,1.1-1.2,2.6-2,4.5c-1.6,3.8-3.7,9.2-5.9,15.1
								c-2.2,5.9-4.2,11.3-5.8,15.2c-0.8,1.9-1.4,3.4-1.8,4.6c-0.2,0.5-0.4,0.9-0.5,1.2C11.3,978.1,11.2,978.3,11.2,978.3z"/>
						</g>
					</g>
				</g>
			</g>
		</g>
		<g>
			<g>
				<g>
					<g>
						<g>
							<path class="st2" d="M-33.2,963.8c0,0,0.1,0.1,0.4,0.2c0.3,0.1,0.8,0.3,1.3,0.4c1.2,0.4,2.8,0.9,4.8,1.6
								c4,1.3,9.5,3.2,15.6,5.3c6.1,2.1,11.6,3.9,15.7,5.2c2,0.6,3.7,1.1,4.8,1.4c0.5,0.1,1,0.3,1.3,0.4c0.3,0.1,0.5,0.1,0.5,0.1
								c0,0-0.1-0.1-0.4-0.2c-0.3-0.1-0.8-0.3-1.3-0.4c-1.2-0.4-2.8-0.9-4.8-1.6c-4-1.3-9.5-3.2-15.6-5.3
								c-6.1-2.1-11.6-3.9-15.7-5.2c-2-0.6-3.7-1.1-4.8-1.4c-0.5-0.1-1-0.3-1.3-0.4C-33,963.8-33.2,963.8-33.2,963.8z"/>
						</g>
					</g>
				</g>
			</g>
		</g>
	</g>
</g>
<g id="Device">
	<g>
		<g>
			<g>
				<g>
					<g>
						<g>
							<g>
								<g>
									<g>
										<g>
											<g>
												<g>
													<path class="st4" d="M178,455.9l-139.2,0c-16.8-0.1-31-14.4-31-31.2L9.4,74.2C9.5,57.3,23.2,43.8,40,43.8l139.8,0.6
														c16.8,0.1,30.4,13.8,30.3,30.6l-1.5,350.5C208.6,442.4,194.9,456,178,455.9z"/>
												</g>
											</g>
										</g>
									</g>
								</g>
							</g>
						</g>
					</g>
				</g>
			</g>
		</g>
		<g>
			<g>
				<g>
					<g>
						<g>
							<path class="st5" d="M179.6,57.8l-27.1-0.1c-3.6,0-6.6,3.1-6.6,6.9l0,4.9c0,3.8-3,6.9-6.6,6.9l-52.8-0.2
								c-3.6,0-6.6-3.1-6.6-6.9l0-4.9c0-3.8-2.9-6.9-6.6-6.9l-9.5,0l-23.7-0.1c-11.8-0.1-21.4,9.5-21.4,21.2l-1.4,342.1
								c-0.1,11.8,9.5,21.4,21.2,21.4l139.5,0.6c11.8,0.1,21.4-9.5,21.4-21.2l1.4-342.1C200.9,67.5,191.4,57.9,179.6,57.8z"/>
						</g>
					</g>
				</g>
			</g>
			<g>
				<g>
					<path class="st5" d="M120.4,377.9c-0.2,4.1-0.3,8-0.4,11.2h20l-2.5-12.3L120.4,377.9z"/>
				</g>
				<g>
					<path class="st5" d="M38.9,383.1l0.2,6.1h78.8c0.1-3.4,0.3-7.2,0.4-11.1L38.9,383.1z"/>
				</g>
				<g>
					<polygon class="st5" points="138.5,376.8 141,389.2 178,389.2 177.5,374.3 					"/>
				</g>
				<g>
					<polygon class="st5" points="122.4,203.8 129.4,163.3 111.1,161.9 111.1,203.8 					"/>
				</g>
				<g>
					<polygon class="st5" points="37.3,360.6 17.4,368.4 17.3,382.5 37.9,381.2 					"/>
				</g>
				<g>
					<polygon class="st5" points="37.2,357.4 36.1,319.7 36.1,319.7 36.1,306.4 17.7,308.4 17.4,365.2 37.2,357.4 					"/>
				</g>
				<g>
					<polygon class="st5" points="36.1,276.7 17.8,274.3 17.7,305.3 36.1,303.4 					"/>
				</g>
				<g>
					<polygon class="st5" points="172.3,307 171.5,317.8 149.9,320.1 151.6,328.7 176.1,326.8 175.7,314.6 177.7,306.4 					"/>
				</g>
				<g>
					<polygon class="st5" points="133.4,330 150.6,328.7 146.8,309.5 131.8,311.1 					"/>
				</g>
				<g>
					<polygon class="st5" points="133.5,332 134.8,348 137.2,370 138.1,374.8 177.4,372.3 176.1,328.8 					"/>
				</g>
				<g>
					<path class="st5" d="M65.9,256.4l1.5,2.6l-30.3,17.7v41.9l32-2.3l61.7-6.2l-2.3-27.5L69.6,275l0.4-3l58.3,7.6l-3.8-46.5
						l-57.7,5.5l-0.2-2l57.7-5.5l-2-24.3H66.8l-48.7,8.9l-0.2,55.6l18.4,2.4L65.9,256.4z M40.2,314.6c0,0,0.2-34.6,0-35.9l24.7-13.2
						l3.2,47.3L40.2,314.6z"/>
				</g>
				<g>
					<polygon class="st5" points="170.2,307.2 147.8,309.4 149.5,318.1 169.6,316 					"/>
				</g>
				<g>
					<path class="st5" d="M120.7,370.5c-0.1,1.8-0.1,3.6-0.2,5.4l16.7-1.1l-0.9-4.3L120.7,370.5z"/>
				</g>
				<g>
					<polygon class="st5" points="84.7,203.8 87.7,190.5 110.1,190.5 110.1,161.9 40,156.7 40,183.5 18.2,188.5 18.1,212.6 
						66.5,203.8 					"/>
				</g>
				<g>
					<path class="st5" d="M131.5,124.2l-0.6-2.5l26.7-10.6l-17.4-34.9c-0.3,0-0.6,0.1-1,0.1l-29.5-0.1l0.8,48.9L131.5,124.2z"/>
				</g>
				<g>
					<path class="st5" d="M172,105.5l0-47.7l-19.5-0.1c-3.6,0-6.6,3.1-6.6,6.9l0,4.9c0,2.3-1.1,4.4-2.9,5.6l17.4,34.9L172,105.5z"/>
				</g>
				<g>
					<path class="st5" d="M71.5,107.5l-2.3-50.2l-5.4,0l-21.1-0.1l-9,44.9L71.5,107.5z M66.6,62.4l0.7,40.9l-28.1-4.1l6.2-36.8
						L66.6,62.4z"/>
				</g>
				<g>
					<path class="st5" d="M72.5,107.6l0,0.4c0,3.9,0.1,11,0.2,18.5l36.8-1.5l-0.8-48.9l-22.3-0.1c-3.6,0-6.6-3.1-6.6-6.9l0-4.9
						c0-3.8-2.9-6.9-6.6-6.9l-3.1,0L72.5,107.6L72.5,107.6z"/>
				</g>
				<g>
					<path class="st5" d="M30.7,101.6l8.9-44.4C28,57.4,18.7,66.8,18.6,78.4l-0.1,22.2l0.1-0.7L30.7,101.6z"/>
				</g>
				<g>
					<polygon class="st5" points="37,156.5 18.3,155.1 18.2,185.4 37,181.2 					"/>
				</g>
				<g>
					<polygon class="st5" points="30.5,102.6 18.5,100.9 18.3,150.1 20.9,150.2 					"/>
				</g>
				<g>
					<polygon class="st5" points="68.3,356.9 68.6,317.4 37.1,319.6 38.2,358.3 					"/>
				</g>
				<g>
					<path class="st5" d="M74.1,347.8l44.6,21.4c0.5-14,1-27,1-27.9l1-0.1l0.5-0.9c0.6,0.3,0.6,0.3,0.3,9.8
						c-0.2,5.3-0.4,12.4-0.7,19.5h15.4l-2.3-21.4l-3-37L72.5,317L74.1,347.8z"/>
				</g>
				<g>
					<polygon class="st5" points="183.5,282.3 183,277.1 129.5,282.6 131.7,310.1 177.9,305.4 					"/>
				</g>
				<g>
					<polygon class="st5" points="110.1,193.5 90.1,193.5 87.8,203.8 110.1,203.8 					"/>
				</g>
				<g>
					<path class="st5" d="M175.2,197l-50-3.5l-2,11.8l2.1,25.7l52.8-5.1L175.2,197z M127,205.3l2.7-7.5l43.5,2.7l2.5,21.3l-47.2,5.6
						L127,205.3z"/>
				</g>
				<g>
					<polygon class="st5" points="180.4,250.6 178.2,227.9 125.4,233 127.4,257.1 					"/>
				</g>
				<g>
					<polygon class="st5" points="37.9,383.2 17.4,384.5 17.3,383.1 17.3,389.2 38.1,389.2 					"/>
				</g>
				<g>
					<path class="st5" d="M200.5,94.2l0.3,0.8l0.1-15.7c0-11.8-9.5-21.4-21.2-21.4l-6.6,0l0,47.3L200.5,94.2z"/>
				</g>
				<g>
					<path class="st5" d="M118.7,370.2l-45.6-21.8l-1.6-31.3l-1.9,0.2l-0.3,40.5l-31,1.5l0,0.9l0,0l0,0l0.6,20.9l79.6-5
						C118.5,374.1,118.6,372.2,118.7,370.2z M40.2,361.9l43.5-3l28.3,13.1l-71.7,3.9V361.9z"/>
				</g>
				<g>
					<path class="st5" d="M187.5,146.7l1.9-11.1c-16.3-5.8-17.5-22.9-17.4-28l-10.7,4.2l16.1,32.2L187.5,146.7z"/>
				</g>
				<g>
					<polygon class="st5" points="129.2,279.7 151.4,277.3 147.1,257.7 127.6,260.1 					"/>
				</g>
				<g>
					<polygon class="st5" points="175.3,163.6 133.8,163.6 130.4,163.4 125.7,190.5 174.9,193.9 173.8,182.1 178.6,164.7 					"/>
				</g>
				<g>
					<path class="st5" d="M174.3,158.6l0.5-13l-16.3-32.7l-25.3,10l8.7,35.7H174.3z M157.5,116.9l14.9,28.4l-2.2,8.9l-25.6-1
						l-6.4-26.9L157.5,116.9z"/>
				</g>
				<g>
					<polygon class="st5" points="180.7,315.1 181.5,340.5 199.5,339.5 199.5,340.5 181.5,341.5 182.4,372 199.4,370.9 199.6,372.9 
						182.5,374 183,389.2 199.5,389.2 199.9,304.2 182.9,305.9 					"/>
				</g>
				<g>
					<path class="st5" d="M71.5,108.5L33.4,103l-9.5,47.4l47.7,3.5C71.8,146.7,71.7,124.3,71.5,108.5z"/>
				</g>
				<g>
					<polygon class="st5" points="134.1,158.6 139.8,158.6 131.7,125.2 110.5,126 111,156.9 					"/>
				</g>
				<g>
					<path class="st5" d="M17.2,413.5l0,7c0,0.2,0,0.4,0,0.6V413.5z"/>
				</g>
				<g>
					<path class="st5" d="M72.6,154.1l37.4,2.8l-0.5-30.8l-36.8,1.5C72.8,138,72.8,149.1,72.6,154.1z"/>
				</g>
				<g>
					<polygon class="st5" points="180.7,253.6 148.1,257.6 152.4,277.2 182.7,274.1 					"/>
				</g>
				<g>
					<path class="st5" d="M189.5,134.6l2.1-12.4l9,0.7l0.1-26.7l-27.8,11C172.4,126,184.2,132.6,189.5,134.6z"/>
				</g>
				<g>
					<polygon class="st5" points="178.8,182.6 180,194.3 200.3,195.7 200.4,171.6 183.4,166.2 					"/>
				</g>
				<g>
					<path class="st5" d="M188.5,282.6l-5.3,22.2l16.7-1.7l0.1-23.3c-5.1-1.3-9.6-2.4-12-2.9L188.5,282.6z"/>
				</g>
				<g>
					<polygon class="st5" points="177.3,159 200.5,166.3 200.5,153.1 177.7,147.3 					"/>
				</g>
				<g>
					<path class="st5" d="M187.7,273.9c1.9,0.3,5.4,1,12.3,2.8l0.2-51l-17,1.6L187.7,273.9z"/>
				</g>
				<g>
					<polygon class="st5" points="183,225.4 200.2,223.8 200.3,198.7 180.3,197.3 					"/>
				</g>
				<g>
					<path class="st5" d="M191.5,135.3c3.3,1,6.3,1.8,9.1,2.3l0.1-12.7l-7.3-0.6L191.5,135.3z"/>
				</g>
				<g>
					<path class="st5" d="M189.5,147.2l11.1,2.9l0-11.4c-2.9-0.6-6-1.4-9.3-2.4L189.5,147.2z"/>
				</g>
				<g>
					<path class="st6" d="M37.9,383.2l0.2,6h1l-0.2-6.1l79.5-5c-0.2,3.9-0.3,7.7-0.4,11.1h2c0.1-3.2,0.3-7.1,0.4-11.2l17.2-1.1
						l2.5,12.3h1l-2.5-12.4l39-2.5l0.4,14.8h5l-0.5-15.2l17.1-1.1l-0.1-2l-17,1.1l-0.9-30.5l18-1l-0.1-1l-18,1l-0.8-25.5l2.2-9.2
						l16.9-1.7l0-1l-16.7,1.7l5.3-22.2L188,277c2.4,0.5,6.9,1.6,12,2.9l0-3.1c-6.9-1.8-10.4-2.6-12.3-2.8l-4.5-46.5l17-1.6l0-2
						l-17.2,1.7l-2.7-28.1l20,1.4l0-3l-20.4-1.4l-1.1-11.7l4.6-16.4l17,5.4l0-5.2l-23.2-7.3l0.5-11.8l22.8,5.9l0-3.1l-11.1-2.9
						l1.8-10.9c3.3,1,6.4,1.8,9.3,2.4l0-1c-2.8-0.6-5.9-1.3-9.1-2.3l1.8-10.9l7.3,0.6l0-2l-9-0.7l-2.1,12.4
						c-5.3-2-17.1-8.6-16.6-27.4l27.8-11l0-1.3l-0.3-0.8L173,105.1l0-47.3l-1,0l0,47.7l-11.6,4.6L143,75.1c-0.8,0.6-1.8,1-2.8,1.1
						l17.4,34.9l-26.7,10.6l0.6,2.5l-21,0.9l-0.8-48.9l-1,0l0.8,48.9l-36.8,1.5c-0.1-7.5-0.1-14.6-0.2-18.5l0-0.4l0,0l-2.3-50.3
						l-1,0l2.3,50.2l-37.8-5.4l9-44.9l-2.6,0c-0.2,0-0.3,0-0.5,0l-8.9,44.4l-12-1.7l-0.1,0.7l0,0.3l11.9,1.7l-9.6,47.6l-2.6-0.2l0,5
						l18.7,1.4v24.7l-18.9,4.3l0,3.1l21.9-4.9v-26.9l70,5.2v28.6H87.7l-2.9,13.3H66.5l-48.4,8.8l0,3.1l48.7-8.9h55.5l2,24.3
						l-57.7,5.5l0.2,2l57.7-5.5l3.8,46.5L70,272l-0.4,3l58.9,7.7l2.3,27.5l-61.7,6.2l-32,2.3v-41.9L67.4,259l-1.5-2.6l-29.6,17.3
						l-18.4-2.4l0,3l18.3,2.4v26.7l-18.4,1.9l0,3l18.4-2v13.3l0,0l1.1,37.7l0,0l-19.7,7.7l0,3.2l19.9-7.8l0.6,20.6l-20.5,1.3l0,0.7
						l0.1,1.3L37.9,383.2z M120.5,375.9c0.1-1.8,0.1-3.6,0.2-5.4l15.6,0l0.9,4.3L120.5,375.9z M138.1,374.8l-1-4.8l-2.3-22l-1.3-16
						l42.6-3.2l1.3,43.5L138.1,374.8z M147.8,309.4l22.4-2.3l-0.6,8.8l-20.1,2.2L147.8,309.4z M146.8,309.5l3.7,19.2l-17.2,1.3
						l-1.6-19L146.8,309.5z M176.1,326.8l-24.5,1.8l-1.7-8.6l21.6-2.3l0.8-10.8l5.4-0.5l-2,8.1L176.1,326.8z M147.1,257.7l4.4,19.6
						l-22.2,2.3l-1.6-19.5L147.1,257.7z M152.4,277.2l-4.4-19.6l32.6-4l2,20.5L152.4,277.2z M174.9,193.9l-49.2-3.4l4.7-27.2
						l3.4,0.3l41.5,0l3.3,1.1l-4.8,17.4L174.9,193.9z M172,107.6c0,5.2,1.1,22.2,17.4,28l-1.9,11.1l-10.2-2.6l-16.1-32.2L172,107.6z
						 M158.5,112.9l16.3,32.7l-0.5,13h-32.4l-8.7-35.7L158.5,112.9z M131.7,125.2l8.1,33.5h-5.8l-23.1-1.7l-0.5-30.9L131.7,125.2z
						 M109.5,126.1l0.5,30.8l-37.4-2.8c0.2-5,0.1-16.1,0-26.5L109.5,126.1z M33.4,103l38.1,5.5c0.2,15.8,0.4,38.2,0.2,45.5
						l-47.7-3.5L33.4,103z M129.4,163.3l-7,40.5h-11.3v-41.9L129.4,163.3z M90.1,193.5h20v10.3H87.8L90.1,193.5z M123.1,205.3
						l2-11.8l50,3.5l2.8,28.9l-52.8,5.1L123.1,205.3z M178.2,227.9l2.2,22.7l-53,6.5l-2-24.2L178.2,227.9z M129.5,282.6l53.5-5.6
						l0.5,5.2l-5.6,23.1l-46.2,4.7L129.5,282.6z M133.9,348.1l2.3,21.4h-15.4c0.3-7.1,0.5-14.1,0.7-19.5c0.3-9.5,0.3-9.5-0.3-9.8
						l-0.5,0.9l-1,0.1c0,0.8-0.4,13.9-1,27.9l-44.6-21.4L72.5,317l58.3-5.9L133.9,348.1z M68.6,317.4l-0.3,39.5l-30.1,1.4l-1.1-38.7
						L68.6,317.4z M38.3,360.2L38.3,360.2L38.3,360.2l0-0.9l31-1.5l0.3-40.5l1.9-0.2l1.6,31.3l45.6,21.8c-0.1,1.9-0.1,3.9-0.2,5.8
						l-79.6,5L38.3,360.2z"/>
				</g>
				<g>
					<polygon class="st7" points="83.6,358.8 40.2,361.9 40.2,375.8 111.9,371.9 					"/>
				</g>
				<g>
					<polygon class="st7" points="173.2,200.6 129.7,197.8 127,205.3 128.5,227.5 175.7,221.9 					"/>
				</g>
				<g>
					<path class="st7" d="M38.4,442l139.5,0.6c11.8,0.1,21.4-9.5,21.4-21.2l0.1-32.2H183h-5h-37h-1h-20h-2H39.1h-1H17.3l-0.1,24.3
						v7.7C17.5,432.7,26.9,441.9,38.4,442z"/>
				</g>
				<g>
					<polygon class="st7" points="67.4,103.3 66.6,62.4 45.4,62.4 39.2,99.2 					"/>
				</g>
				<g>
					<polygon class="st7" points="170.3,154.2 172.4,145.3 157.5,116.9 138.3,126.4 144.7,153.2 					"/>
				</g>
				<g>
					<path class="st7" d="M40.2,278.8c0.2,1.3,0,35.9,0,35.9l27.9-1.8l-3.2-47.3L40.2,278.8z"/>
				</g>
			</g>
			<g>
				<polygon class="st7" points="133.4,306.9 131.9,285.4 179.8,279.3 179.8,283 174,302.7 				"/>
			</g>
			<g>
				<g>
					<g>
						<g>
							<path class="st8" d="M97.9,129.1c0,3.2-2.6,5.8-5.8,5.8c-3.2,0-5.8-2.6-5.8-5.8c0-3.2,2.6-5.8,5.8-5.8
								C95.3,123.3,97.9,125.9,97.9,129.1z"/>
						</g>
						<g class="st9">
							<path class="st6" d="M97.9,128.9c0.1,3.2-2.4,5.9-5.6,6.1c-3.2,0.1-5.9-2.4-6.1-5.6c-0.1-3.2,2.4-5.9,5.6-6.1
								C95.1,123.1,97.8,125.6,97.9,128.9z"/>
						</g>
						<g>
							<circle class="st8" cx="92.1" cy="128.9" r="3.9"/>
						</g>
						<g>
							<path class="st8" d="M182.3,362.3c0,1.4-1.1,2.5-2.5,2.5s-2.5-1.1-2.5-2.5c0-1.4,1.1-2.5,2.5-2.5S182.3,360.9,182.3,362.3z"
								/>
						</g>
						<g>
							<path class="st8" d="M178.3,361.5l-0.6-14l-42.1,2c-1.1,0.1-2.2-0.2-3.2-0.7l-59.8-30.2c-1.4-0.7-2.3-2.1-2.4-3.6l-8.1-157.7
								c0-0.8,0.2-1.5,0.8-2c0.5-0.5,1.3-0.8,2-0.7l25.6,1.9v-28h3v28.4c0,0.7-0.3,1.4-0.8,1.9c-0.5,0.5-1.3,0.7-2,0.7l-25.6-1.9
								l8.1,157.3c0,0.5,0.3,0.9,0.7,1.1l59.8,30.2c0.5,0.3,1.1,0.4,1.7,0.4l42.5-2.1c0.7,0,1.4,0.2,1.9,0.7
								c0.5,0.5,0.8,1.1,0.9,1.8l0.6,14.3L178.3,361.5z"/>
						</g>
					</g>
					<g>
						<circle class="st8" cx="67" cy="225.8" r="7.6"/>
					</g>
					<g>
						<circle class="st10" cx="67" cy="225.8" r="5.3"/>
						<path class="st8" d="M67,231.4c-3.1,0-5.6-2.5-5.6-5.6c0-3.1,2.5-5.6,5.6-5.6c3.1,0,5.6,2.5,5.6,5.6
							C72.7,228.9,70.1,231.4,67,231.4z M67,220.9c-2.7,0-4.9,2.2-4.9,4.9c0,2.7,2.2,4.9,4.9,4.9c2.7,0,4.9-2.2,4.9-4.9
							C71.9,223.1,69.7,220.9,67,220.9z"/>
					</g>
				</g>
				<g>
					<g>
						<g>
							<path class="st8" d="M111.6,194.1h-36c-1.7,0-3.2,1.4-3.2,3.2v13c0,1.7,1.4,3.2,3.2,3.2H76v3.1l3.6-3.1h32
								c1.8,0,3.2-1.4,3.2-3.2v-13C114.7,195.5,113.3,194.1,111.6,194.1z"/>
						</g>
					</g>
					<g class="st11">
						<g>
							<path class="st6" d="M111.6,194.1h-36c-1.7,0-3.2,1.4-3.2,3.2v13c0,1.7,1.4,3.2,3.2,3.2H76v3.1l3.6-3.1h32
								c1.8,0,3.2-1.4,3.2-3.2v-13C114.7,195.5,113.3,194.1,111.6,194.1z"/>
						</g>
					</g>
					<g>
						<path class="st6" d="M80.5,203.5c0-1.2,0.9-2.1,2.2-2.1c1.2,0,2.2,0.9,2.2,2.1c0,1.2-0.9,2.1-2.2,2.1
							C81.4,205.6,80.5,204.7,80.5,203.5z M84.2,203.5c0-0.9-0.7-1.6-1.6-1.6c-0.9,0-1.6,0.7-1.6,1.6c0,0.9,0.7,1.6,1.6,1.6
							C83.6,205.1,84.2,204.5,84.2,203.5z"/>
						<path class="st6" d="M88.8,204c0,0.9-0.7,1.6-1.6,1.6c-0.5,0-0.8-0.2-1.1-0.5v0.5h-0.5v-4.3h0.6v1.7c0.3-0.3,0.6-0.5,1.1-0.5
							C88.2,202.5,88.8,203.1,88.8,204z M88.3,204c0-0.7-0.4-1.1-1-1.1c-0.6,0-1,0.4-1,1.1c0,0.7,0.4,1.1,1,1.1
							C87.8,205.1,88.3,204.7,88.3,204z"/>
						<path class="st6" d="M88.5,206.6l0.2-0.4c0.1,0.1,0.3,0.1,0.5,0.1c0.3,0,0.5-0.2,0.5-0.5v-3.2h0.6v3.2c0,0.6-0.3,1-1,1
							C89,206.7,88.7,206.7,88.5,206.6z M89.5,201.5c0-0.2,0.2-0.4,0.4-0.4c0.2,0,0.4,0.2,0.4,0.4c0,0.2-0.2,0.4-0.4,0.4
							C89.7,201.9,89.5,201.8,89.5,201.5z"/>
						<path class="st6" d="M94,204.2h-2.5c0.1,0.5,0.5,0.9,1.1,0.9c0.4,0,0.7-0.1,0.9-0.4l0.3,0.4c-0.3,0.3-0.7,0.5-1.2,0.5
							c-1,0-1.7-0.7-1.7-1.6c0-0.9,0.7-1.6,1.5-1.6c0.9,0,1.5,0.6,1.5,1.6C94,204.1,94,204.2,94,204.2z M91.5,203.8h2
							c-0.1-0.5-0.4-0.9-1-0.9C92,202.9,91.6,203.3,91.5,203.8z"/>
						<path class="st6" d="M94.5,204c0-0.9,0.7-1.6,1.6-1.6c0.6,0,1,0.2,1.3,0.7l-0.4,0.3c-0.2-0.3-0.5-0.4-0.8-0.4
							c-0.6,0-1.1,0.4-1.1,1.1c0,0.7,0.5,1.1,1.1,1.1c0.3,0,0.6-0.1,0.8-0.4l0.4,0.3c-0.2,0.4-0.7,0.7-1.3,0.7
							C95.2,205.6,94.5,205,94.5,204z"/>
						<path class="st6" d="M99.9,205.4c-0.2,0.1-0.4,0.2-0.7,0.2c-0.6,0-1-0.3-1-1V203h-0.5v-0.5h0.5v-0.7h0.6v0.7h0.9v0.5h-0.9v1.7
							c0,0.3,0.2,0.5,0.5,0.5c0.2,0,0.3-0.1,0.4-0.1L99.9,205.4z"/>
						<path class="st6" d="M100.5,201.5c0-0.2,0.2-0.4,0.4-0.4c0.2,0,0.4,0.2,0.4,0.4c0,0.2-0.2,0.4-0.4,0.4
							C100.6,201.9,100.5,201.8,100.5,201.5z M100.6,202.5h0.6v3.1h-0.6V202.5z"/>
						<path class="st6" d="M104.9,202.5l-1.3,3.1H103l-1.3-3.1h0.6l1.1,2.5l1.1-2.5H104.9z"/>
						<path class="st6" d="M108.1,204.2h-2.5c0.1,0.5,0.5,0.9,1.1,0.9c0.4,0,0.7-0.1,0.9-0.4l0.3,0.4c-0.3,0.3-0.7,0.5-1.2,0.5
							c-1,0-1.7-0.7-1.7-1.6c0-0.9,0.7-1.6,1.5-1.6c0.9,0,1.5,0.6,1.5,1.6C108.1,204.1,108.1,204.2,108.1,204.2z M105.6,203.8h2
							c-0.1-0.5-0.4-0.9-1-0.9C106.1,202.9,105.7,203.3,105.6,203.8z"/>
					</g>
				</g>
				<g>
					<g>
						<path class="st8" d="M99.7,109.5c0-4.6-4.2-8.2-8.9-7.3c-3,0.6-5.4,3-5.9,6c-0.3,1.9,0.1,3.6,0.9,5.1h0l0,0
							c0.3,0.5,0.6,0.8,1,1.3l4.3,5.8c0.5,0.7,1.6,0.7,2.2,0l4.3-5.7c0,0,0.8-1,1.1-1.4l0,0h0C99.3,112.2,99.7,110.9,99.7,109.5z
							 M92.2,112.8c-1.8,0-3.3-1.5-3.3-3.3s1.5-3.3,3.3-3.3c1.8,0,3.3,1.5,3.3,3.3S94,112.8,92.2,112.8z"/>
					</g>
				</g>
			</g>
			<g>
				<g>
					<g>
						<path class="st4" d="M51.2,404.4h-1.4v-0.5h3.4v0.5h-1.4v3.6h-0.6V404.4z"/>
					</g>
					<g>
						<path class="st4" d="M53.1,406.4c0-0.9,0.7-1.6,1.6-1.6c0.9,0,1.6,0.7,1.6,1.6c0,0.9-0.7,1.6-1.6,1.6
							C53.8,408,53.1,407.3,53.1,406.4z M55.8,406.4c0-0.7-0.4-1.1-1-1.1c-0.6,0-1,0.4-1,1.1c0,0.7,0.4,1.1,1,1.1
							C55.3,407.5,55.8,407.1,55.8,406.4z"/>
					</g>
					<g>
						<path class="st4" d="M58.9,407.8c-0.2,0.1-0.4,0.2-0.7,0.2c-0.6,0-1-0.3-1-1v-1.7h-0.5v-0.5h0.5v-0.7h0.6v0.7h0.9v0.5h-0.9
							v1.7c0,0.3,0.2,0.5,0.5,0.5c0.2,0,0.3-0.1,0.4-0.1L58.9,407.8z"/>
					</g>
					<g>
						<path class="st4" d="M62,406.1v1.9h-0.5v-0.4c-0.2,0.3-0.5,0.4-1,0.4c-0.7,0-1.1-0.4-1.1-0.9c0-0.5,0.3-0.9,1.2-0.9h0.9v-0.1
							c0-0.5-0.3-0.7-0.8-0.7c-0.4,0-0.7,0.1-1,0.3l-0.2-0.4c0.3-0.3,0.8-0.4,1.3-0.4C61.5,404.8,62,405.2,62,406.1z M61.4,407v-0.4
							h-0.9c-0.6,0-0.7,0.2-0.7,0.5c0,0.3,0.3,0.5,0.7,0.5C60.9,407.5,61.3,407.4,61.4,407z"/>
					</g>
					<g>
						<path class="st4" d="M63,403.6h0.6v4.3H63V403.6z"/>
					</g>
					<g>
						<path class="st4" d="M69.1,403.6v4.3h-0.5v-0.5c-0.3,0.3-0.6,0.5-1.1,0.5c-0.9,0-1.6-0.6-1.6-1.6c0-0.9,0.7-1.6,1.6-1.6
							c0.4,0,0.8,0.2,1.1,0.5v-1.7H69.1z M68.5,406.4c0-0.7-0.4-1.1-1-1.1c-0.6,0-1,0.4-1,1.1c0,0.7,0.4,1.1,1,1.1
							C68.1,407.5,68.5,407.1,68.5,406.4z"/>
					</g>
					<g>
						<path class="st4" d="M70.1,403.9c0-0.2,0.2-0.4,0.4-0.4c0.2,0,0.4,0.2,0.4,0.4c0,0.2-0.2,0.4-0.4,0.4
							C70.2,404.3,70.1,404.1,70.1,403.9z M70.2,404.9h0.6v3.1h-0.6V404.9z"/>
					</g>
					<g>
						<path class="st4" d="M71.4,407.6l0.2-0.4c0.3,0.2,0.7,0.3,1.1,0.3c0.5,0,0.7-0.2,0.7-0.4c0-0.7-1.9-0.1-1.9-1.3
							c0-0.6,0.5-0.9,1.3-0.9c0.4,0,0.9,0.1,1.1,0.3l-0.2,0.4c-0.3-0.2-0.6-0.2-0.9-0.2c-0.5,0-0.7,0.2-0.7,0.4c0,0.7,2,0.1,2,1.3
							c0,0.6-0.5,0.9-1.3,0.9C72.2,408,71.6,407.8,71.4,407.6z"/>
					</g>
					<g>
						<path class="st4" d="M76.4,407.8c-0.2,0.1-0.4,0.2-0.7,0.2c-0.6,0-1-0.3-1-1v-1.7h-0.5v-0.5h0.5v-0.7h0.6v0.7h0.9v0.5h-0.9
							v1.7c0,0.3,0.2,0.5,0.5,0.5c0.2,0,0.3-0.1,0.4-0.1L76.4,407.8z"/>
					</g>
					<g>
						<path class="st4" d="M79.5,406.1v1.9H79v-0.4c-0.2,0.3-0.5,0.4-1,0.4c-0.7,0-1.1-0.4-1.1-0.9c0-0.5,0.3-0.9,1.2-0.9H79v-0.1
							c0-0.5-0.3-0.7-0.8-0.7c-0.4,0-0.7,0.1-1,0.3l-0.2-0.4c0.3-0.3,0.8-0.4,1.3-0.4C79.1,404.8,79.5,405.2,79.5,406.1z M79,407
							v-0.4h-0.9c-0.6,0-0.7,0.2-0.7,0.5c0,0.3,0.3,0.5,0.7,0.5C78.5,407.5,78.8,407.4,79,407z"/>
					</g>
					<g>
						<path class="st4" d="M83.5,406.2v1.8h-0.6v-1.7c0-0.6-0.3-0.9-0.8-0.9c-0.6,0-1,0.4-1,1v1.6h-0.6v-3.1h0.5v0.5
							c0.2-0.3,0.6-0.5,1.1-0.5C83,404.8,83.5,405.3,83.5,406.2z"/>
					</g>
					<g>
						<path class="st4" d="M84.3,406.4c0-0.9,0.7-1.6,1.6-1.6c0.6,0,1,0.2,1.3,0.7l-0.4,0.3c-0.2-0.3-0.5-0.4-0.8-0.4
							c-0.6,0-1.1,0.4-1.1,1.1c0,0.7,0.5,1.1,1.1,1.1c0.3,0,0.6-0.1,0.8-0.4l0.4,0.3c-0.2,0.4-0.7,0.7-1.3,0.7
							C84.9,408,84.3,407.3,84.3,406.4z"/>
					</g>
					<g>
						<path class="st4" d="M90.6,406.6h-2.5c0.1,0.5,0.5,0.9,1.1,0.9c0.4,0,0.7-0.1,0.9-0.4l0.3,0.4c-0.3,0.3-0.7,0.5-1.2,0.5
							c-1,0-1.7-0.7-1.7-1.6c0-0.9,0.7-1.6,1.5-1.6c0.9,0,1.5,0.6,1.5,1.6C90.6,406.5,90.6,406.5,90.6,406.6z M88.1,406.2h2
							c-0.1-0.5-0.4-0.9-1-0.9C88.6,405.3,88.2,405.7,88.1,406.2z"/>
					</g>
				</g>
				<g>
					<g>
						<path class="st4" d="M54.9,412.5v9.7h-2.2v-7.9h-1.9v-1.8H54.9z"/>
					</g>
					<g>
						<path class="st4" d="M59.2,421c0,0.4-0.1,0.6-0.4,1.4l-0.8,2h-1.4l0.6-2.2c-0.5-0.2-0.7-0.6-0.7-1.2c0-0.8,0.6-1.3,1.3-1.3
							C58.6,419.6,59.2,420.2,59.2,421z"/>
					</g>
					<g>
						<path class="st4" d="M63.7,412.5v9.7h-2.2v-7.9h-1.9v-1.8H63.7z"/>
					</g>
					<g>
						<path class="st4" d="M65.4,417.4c0-3.2,1.8-5,4.2-5c2.4,0,4.2,1.8,4.2,5s-1.8,5-4.2,5C67.2,422.4,65.4,420.6,65.4,417.4z
							 M71.5,417.4c0-2.2-0.8-3.1-1.9-3.1c-1.1,0-1.9,0.9-1.9,3.1s0.8,3.1,1.9,3.1C70.7,420.5,71.5,419.6,71.5,417.4z"/>
					</g>
					<g>
						<path class="st4" d="M74.8,417.4c0-3.2,1.8-5,4.2-5c2.4,0,4.2,1.8,4.2,5s-1.8,5-4.2,5C76.6,422.4,74.8,420.6,74.8,417.4z
							 M80.9,417.4c0-2.2-0.8-3.1-1.9-3.1c-1.1,0-1.9,0.9-1.9,3.1s0.8,3.1,1.9,3.1C80.1,420.5,80.9,419.6,80.9,417.4z"/>
					</g>
					<g>
						<path class="st4" d="M101.3,417.9v4.3h-2.2v-3.9c0-1.2-0.5-1.8-1.4-1.8c-1,0-1.7,0.6-1.7,2v3.7h-2.2v-3.9
							c0-1.2-0.5-1.8-1.4-1.8c-1,0-1.6,0.6-1.6,2v3.7h-2.2v-7.5h2.1v0.9c0.6-0.6,1.4-1,2.3-1c1,0,1.9,0.4,2.5,1.2
							c0.6-0.8,1.6-1.2,2.7-1.2C100,414.6,101.3,415.7,101.3,417.9z"/>
					</g>
				</g>
				<g>
					<g>
						<g>
							
								<ellipse transform="matrix(0.2289 -0.9734 0.9734 0.2289 -372.5972 353.1058)" class="st8" cx="36.6" cy="411.7" rx="8.4" ry="8.4"/>
						</g>
					</g>
					<g>
						<g>
							<g>
								<path class="st10" d="M33.2,413.3c0,0,0.8-0.1,2.2-0.1c1.4,0,3.3-0.1,5.7-0.1l-0.2,0.4c-0.7-0.8-1.4-1.6-2.1-2.5l-0.1-0.2
									l0.1-0.2c0.7-0.8,1.4-1.7,2.1-2.6l0.2,0.4c-0.3,0-0.6,0-1,0c-2.5,0-4.8,0-6.9,0l0.2-0.2c0,2.5-0.1,4.7-0.1,6.2
									c0,1.5-0.1,2.4-0.1,2.4c-0.1,0-0.1-0.9-0.1-2.4c0-1.5-0.1-3.6-0.1-6.2l0-0.2l0.2,0c2.1,0,4.4,0,6.9,0c0.3,0,0.6,0,1,0l0.5,0
									l-0.3,0.4c-0.7,0.9-1.5,1.8-2.1,2.6l0-0.3c0.7,0.9,1.4,1.7,2.1,2.5l0.3,0.4l-0.5,0c-2.3,0-4.3-0.1-5.7-0.1
									C34,413.4,33.2,413.3,33.2,413.3z"/>
							</g>
						</g>
					</g>
				</g>
			</g>
			<g>
				<g>
					<path class="st8" d="M172,397.5h-25.3c-2.7,0-4.8,2.2-4.8,4.8v19.9c0,2.7,2.2,4.8,4.8,4.8h0.6v4.7l5.5-4.7H172
						c2.7,0,4.8-2.2,4.8-4.8v-19.9C176.9,399.6,174.7,397.5,172,397.5z"/>
				</g>
				<g>
					<g>
						<g>
							<path class="st10" d="M149.1,406.6v10.2c0,0.2,0.2,0.4,0.4,0.4h21.4c0.2,0,0.4-0.2,0.4-0.4l0-3.7c0-0.1,0-0.2-0.1-0.2
								l-3.1-4.1c-0.1-0.1-0.2-0.2-0.3-0.2l-3.5,0c-0.2,0-0.4-0.2-0.4-0.4v-1.5c0-0.2-0.2-0.4-0.4-0.4h-14
								C149.3,406.2,149.1,406.4,149.1,406.6z"/>
						</g>
					</g>
					<g>
						<g>
							<path class="st8" d="M164.9,409.4v3.3c0,0.1,0.1,0.2,0.2,0.2l4.7-0.1c0.2,0,0.3-0.2,0.2-0.4l-2.2-3.3c0-0.1-0.1-0.1-0.2-0.1
								l-2.5,0.1C165,409.2,164.9,409.3,164.9,409.4z"/>
						</g>
					</g>
					<g>
						<g>
							<rect x="148.7" y="417.5" class="st10" width="23.1" height="0.7"/>
						</g>
					</g>
					<g>
						<g>
							<path class="st8" d="M156.3,417.8c0,1.3-1,2.3-2.3,2.3c-1.3,0-2.3-1-2.3-2.3c0-1.3,1-2.3,2.3-2.3
								C155.3,415.5,156.3,416.5,156.3,417.8z"/>
						</g>
					</g>
					<g>
						<g>
							<path class="st10" d="M155.4,417.8c0,0.7-0.6,1.3-1.3,1.3c-0.7,0-1.3-0.6-1.3-1.3c0-0.7,0.6-1.3,1.3-1.3
								C154.8,416.5,155.4,417.1,155.4,417.8z"/>
						</g>
					</g>
					<g>
						<g>
							<g>
								<path class="st8" d="M163.9,417.2c-0.1,0-0.1-2.5-0.1-5.5c0-3,0-5.5,0.1-5.5c0.1,0,0.1,2.5,0.1,5.5
									C164,414.7,163.9,417.2,163.9,417.2z"/>
							</g>
						</g>
					</g>
					<g>
						<g>
							<g>
								<path class="st8" d="M168.8,417.8c0,1.3-1,2.3-2.3,2.3c-1.3,0-2.3-1-2.3-2.3c0-1.3,1-2.3,2.3-2.3
									C167.7,415.5,168.8,416.5,168.8,417.8z"/>
							</g>
						</g>
						<g>
							<g>
								<path class="st10" d="M167.8,417.8c0,0.7-0.6,1.3-1.3,1.3s-1.3-0.6-1.3-1.3c0-0.7,0.6-1.3,1.3-1.3S167.8,417.1,167.8,417.8z
									"/>
							</g>
						</g>
					</g>
					<g>
						<g>
							<g>
								<path class="st8" d="M166.5,413.6c0,0.1-0.3,0.1-0.7,0.1c-0.4,0-0.7,0-0.7-0.1c0-0.1,0.3-0.1,0.7-0.1
									C166.1,413.5,166.5,413.5,166.5,413.6z"/>
							</g>
						</g>
					</g>
				</g>
			</g>
		</g>
	</g>
</g>
<g id="Character">
	<g>
		<g>
			<g>
				<g>
					<path class="st12" d="M405.1,245.9c0,0,16.1,2.7,17.4,3.1c1.3,0.3,6.4,2.8,6.7,4.3c0.3,1.6,0,6.1,0,6.1s-0.9,0.8-1.5-0.7
						c-0.6-1.5-0.5-4.5-0.5-4.5l-2.9-1.1l1.6,2.8l0.3,6.5c0,0-2-0.2-2.4-1.7c-0.4-1.6-0.4-3.3-0.4-3.3l-2.1-1.8l1.6,2.1l0.5,4.7
						c0,0-1.5,0.5-2-0.5c-0.5-1-0.5-4.1-0.5-4.1l-5.9-2.1l-3.9,2.2l-7.3-4.1L405.1,245.9z"/>
				</g>
			</g>
			<g>
				<g>
					<g>
						<g>
							<path class="st8" d="M348.7,206c0.1,0.3,19.4,27,19.4,27l38.9,12.1l-1.8,14.6l-47.7-9.6l-16.9-19.4L348.7,206z"/>
						</g>
					</g>
					<g class="st13">
						<g>
							<path d="M348.7,206c0.1,0.3,19.4,27,19.4,27l38.9,12.1l-1.8,14.6l-47.7-9.6l-16.9-19.4L348.7,206z"/>
						</g>
					</g>
				</g>
			</g>
		</g>
		<g>
			<g>
				<g>
					<g>
						<g>
							<path class="st5" d="M280.9,258.2h-79.5c-1.7,0-3-1.4-3-3v-9.4c0-1.7,1.4-3,3-3h79.5c1.7,0,3,1.4,3,3v9.4
								C283.9,256.8,282.6,258.2,280.9,258.2z"/>
						</g>
					</g>
					<g>
						<g>
							<g>
								<path class="st4" d="M280.9,258.2c0,0,0.2,0,0.5-0.1c0.3-0.1,0.8-0.2,1.3-0.6c0.5-0.4,1-1.1,1.1-2c0-0.9,0-2.1,0-3.3
									c0-1.2,0-2.6,0-4.1c0-0.8,0-1.5,0-2.4c0-0.8-0.4-1.6-1-2.1c-0.3-0.3-0.7-0.5-1.1-0.6c-0.4-0.1-0.9-0.1-1.3-0.1
									c-0.9,0-1.9,0-2.9,0c-2,0-4.1,0-6.4,0c-17.8,0-42.4,0-69.6,0.1c-0.8,0-1.5,0.3-2.1,0.9c-0.5,0.6-0.8,1.3-0.7,2.1
									c0,1.7,0,3.3,0,5c0,0.8,0,1.7,0,2.5l0,1.2c0,0.4,0,0.8,0.1,1.1c0.2,0.7,0.7,1.4,1.3,1.7c0.3,0.2,0.7,0.3,1,0.3
									c0.4,0,0.8,0,1.2,0c6.4,0,12.6,0,18.5,0c11.8,0,22.4,0,31.3,0.1c8.9,0,16.1,0.1,21.1,0.1c2.5,0,4.4,0,5.7,0
									c0.6,0,1.1,0,1.5,0C280.7,258.1,280.9,258.2,280.9,258.2s-0.2,0-0.5,0c-0.4,0-0.9,0-1.5,0c-1.3,0-3.3,0-5.7,0
									c-5,0-12.2,0-21.1,0.1c-8.9,0-19.5,0-31.3,0.1c-5.9,0-12.1,0-18.5,0c-0.4,0-0.8,0-1.2,0c-0.4,0-0.9-0.2-1.2-0.4
									c-0.8-0.4-1.4-1.2-1.6-2c-0.1-0.4-0.1-0.9-0.1-1.3l0-1.2c0-0.8,0-1.6,0-2.5c0-1.7,0-3.3,0-5c-0.1-0.9,0.2-1.8,0.9-2.5
									c0.6-0.7,1.5-1.1,2.4-1.1c27.2,0,51.8,0.1,69.6,0.1c2.2,0,4.3,0,6.4,0c1,0,2,0,2.9,0c0.5,0,1,0,1.4,0.1
									c0.5,0.1,0.9,0.4,1.2,0.7c0.7,0.6,1.1,1.5,1.1,2.4c0,0.8,0,1.6,0,2.4c0,1.5,0,2.9,0,4.1c0,1.2,0,2.3,0,3.3
									c-0.1,1-0.7,1.7-1.2,2.1c-0.5,0.4-1.1,0.5-1.4,0.6C281.1,258.2,280.9,258.2,280.9,258.2z"/>
							</g>
						</g>
					</g>
				</g>
				<g>
					<g>
						<g>
							<g>
								<g>
									<g>
										<g>
											
												<ellipse transform="matrix(0.9988 -4.796716e-02 4.796716e-02 0.9988 -19.3496 24.2093)" class="st4" cx="494.7" cy="415.3" rx="40.9" ry="40.9"/>
										</g>
									</g>
								</g>
							</g>
						</g>
					</g>
					<g>
						<g>
							<g>
								<g>
									<g>
										<g>
											<path class="st4" d="M453.9,414.6c0,0,0,0.1,0,0.1c-0.3,22.6,17.7,41.1,40.3,41.5c22.6,0.3,41.1-17.7,41.5-40.3
												c0,0,0-0.1,0-0.1L453.9,414.6z"/>
										</g>
									</g>
								</g>
							</g>
						</g>
					</g>
					<g>
						<g>
							<g>
								<g>
									<g>
										<g>
											<path class="st10" d="M466,414.9c-0.2,15.9,12.4,28.9,28.3,29.1c15.9,0.2,28.9-12.4,29.1-28.3
												c0.2-15.9-12.4-28.9-28.3-29.1C479.3,386.3,466.3,399,466,414.9z"/>
										</g>
									</g>
								</g>
							</g>
						</g>
					</g>
					<g>
						<g>
							<g>
								<g>
									<g>
										<g>
											<path class="st14" d="M495.2,386.6c-15.9-0.2-28.9,12.4-29.1,28.3l57.4,0.8C523.7,399.8,511,386.8,495.2,386.6z"/>
										</g>
									</g>
								</g>
							</g>
						</g>
					</g>
					<g>
						<g>
							<g>
								<g>
									<g>
										<g>
											<path class="st4" d="M477.3,415c-0.1,9.7,7.6,17.6,17.2,17.7c9.7,0.1,17.6-7.6,17.7-17.2c0.1-9.7-7.6-17.6-17.2-17.7
												C485.3,397.6,477.4,405.4,477.3,415z"/>
										</g>
									</g>
								</g>
							</g>
						</g>
					</g>
				</g>
				<g>
					<g>
						<path class="st8" d="M475.3,355.3c0,0,41.9-12.7,59.2,32.8l-87.6,27.1L475.3,355.3z"/>
					</g>
				</g>
				<g>
					<g>
						<g>
							<g>
								<g>
									<g>
										<g>
											
												<ellipse transform="matrix(0.9988 -4.796716e-02 4.796716e-02 0.9988 -19.64 12.1079)" class="st4" cx="242.5" cy="415.3" rx="40.9" ry="40.9"/>
										</g>
									</g>
								</g>
							</g>
						</g>
					</g>
					<g>
						<g>
							<g>
								<g>
									<g>
										<g>
											<path class="st4" d="M201.6,414.6c0,0,0,0.1,0,0.1c-0.3,22.6,17.7,41.1,40.3,41.5c22.6,0.3,41.1-17.7,41.5-40.3
												c0,0,0-0.1,0-0.1L201.6,414.6z"/>
										</g>
									</g>
								</g>
							</g>
						</g>
					</g>
					<g>
						<g>
							<g>
								<g>
									<g>
										<g>
											<path class="st10" d="M213.8,414.9c-0.2,15.9,12.4,28.9,28.3,29.1c15.9,0.2,28.9-12.4,29.1-28.3
												c0.2-15.9-12.4-28.9-28.3-29.1C227,386.3,214,399,213.8,414.9z"/>
										</g>
									</g>
								</g>
							</g>
						</g>
					</g>
					<g>
						<g>
							<g>
								<g>
									<g>
										<g>
											<path class="st14" d="M242.9,386.6c-15.9-0.2-28.9,12.4-29.1,28.3l57.4,0.8C271.4,399.8,258.7,386.8,242.9,386.6z"/>
										</g>
									</g>
								</g>
							</g>
						</g>
					</g>
					<g>
						<g>
							<g>
								<g>
									<g>
										<g>
											<path class="st4" d="M225,415c-0.1,9.7,7.6,17.6,17.2,17.7c9.7,0.1,17.6-7.6,17.7-17.2c0.1-9.7-7.6-17.6-17.2-17.7
												C233.1,397.6,225.1,405.4,225,415z"/>
										</g>
									</g>
								</g>
							</g>
						</g>
					</g>
				</g>
				<g>
					<g>
						<path class="st15" d="M300.6,398.9c-0.2,0.1-21.5-3.3-21.5-3.3l0,0c-2.3,3-5.9,4.9-9.7,5.1c-9.2,0.4-18.2,0.8-26,1.2
							c-7.3,0.3-12.9,6.5-12.6,13.7l0,0c0.3,6.9,5.8,12.4,12.7,12.6l45.3,1.8c7.4,0.3,17.3-4.2,22-10.1l0,0L300.6,398.9z"/>
					</g>
				</g>
				<g>
					<g>
						<path class="st8" d="M189.4,380.8c0,0-1.9-39.8,35.5-48.1v-5.1h131.2v12.2c0,0-19.3,23.2-13,42.4c6.3,19.3,8.3,21.2,8.3,21.2
							H426c0,0,9-11.4,9.4-28.3c0.4-16.9-6.6-45.8-11.9-64.3c-4.8-16.8-7.8-30.8-7.8-30.8l22.4-7.5c0,0,41.4,54.2,43.1,57.2
							c1.7,3,7.4,10.2,6.1,25.7s-38.6,63.7-48.4,69.1c-9.8,5.4-18.6,5.8-27.4,7.1c-7.6,1.2-64.2,0.4-79,0.2
							c-5.1-0.1-10.2-1.4-14.6-4.1c-4.4-2.7-7.7-7.1-11.4-14.4l-7.8-15.2L189.4,380.8z"/>
					</g>
				</g>
				<g>
					<g>
						<path class="st15" d="M199.4,378l-16.5,25.9c-2.1,3.3,1.3,7.5,4.9,5.9c1.7-0.8,3.6-1.9,5.5-3.8c7.6-7.2,21-26.1,21-26.1
							L199.4,378z"/>
					</g>
				</g>
				<g>
					<g>
						<g>
							<path class="st4" d="M317.9,382.6c0,0,0-0.1,0.1-0.4c0.1-0.3,0.2-0.6,0.3-1.1c0.3-1,0.6-2.4,0.9-4.3
								c0.4-3.7,0.2-9.4-2.6-15.6c-1.4-3.1-3.4-6.3-6.1-9.2c-2.7-2.9-6.1-5.5-10-7.7c-3.9-2.1-8.4-3.8-13.1-4.9
								c-4.8-1.1-9.8-1.5-15-1.5c-5.2,0-10.2,0.5-15.1,1.1c-4.8,0.7-9.5,1.5-13.9,2.5c-8.8,2-16.4,4.9-22.3,8.2
								c-5.9,3.3-10.1,7-12.7,9.7c-1.3,1.4-2.3,2.5-2.9,3.3c-0.3,0.4-0.5,0.7-0.7,0.9c-0.2,0.2-0.2,0.3-0.3,0.3c0,0,1.1-1.8,3.7-4.6
								c2.6-2.8,6.8-6.5,12.7-9.9c5.9-3.4,13.5-6.4,22.3-8.4c4.4-1,9-1.8,13.9-2.5c4.9-0.7,9.9-1.1,15.1-1.1
								c5.2,0,10.3,0.5,15.1,1.6c4.8,1.1,9.3,2.8,13.2,5c4,2.2,7.4,4.9,10.1,7.8c2.7,2.9,4.8,6.2,6.1,9.3c2.8,6.3,2.9,12,2.4,15.8
								c-0.3,1.9-0.7,3.3-1,4.3c-0.2,0.5-0.3,0.8-0.4,1.1C318,382.5,317.9,382.6,317.9,382.6z"/>
						</g>
					</g>
				</g>
				<g>
					<g>
						<g>
							<path class="st5" d="M310.3,373.7c-0.1,0,0.2-0.6,0.5-1.8c0.3-1.1,0.4-2.9,0.1-5c-0.3-2.1-1.1-4.5-2.4-6.9
								c-0.7-1.2-1.5-2.5-2.4-3.6c-0.9-1.2-2-2.3-3.3-3.4c-2.5-2.1-5.2-3.5-7.8-4.6c-2.6-1-5.1-1.6-7.2-2c-2.1-0.3-3.8-0.5-5-0.6
								c-1.2-0.1-1.8-0.1-1.8-0.1c0,0,0.2,0,0.5,0c0.3,0,0.8,0,1.4,0c1.2,0,2.9,0.1,5,0.4c2.1,0.3,4.6,0.9,7.3,1.9
								c2.6,1,5.4,2.5,8,4.6c1.3,1.1,2.4,2.2,3.3,3.4c1,1.2,1.8,2.5,2.4,3.7c1.4,2.5,2.1,5,2.4,7.1c0.3,2.1,0.1,3.9-0.3,5.1
								c-0.1,0.6-0.4,1-0.5,1.3C310.4,373.6,310.4,373.7,310.3,373.7z"/>
						</g>
					</g>
				</g>
				<g class="st11">
					<g>
						<g>
							<path d="M284.7,338.8c7.3,1.4,13.7,4,19.8,8c6,4,10.6,9.7,13.2,16.4s2.2,15.7-0.5,21.2l9.3,0.8c3.1-10.4-0.3-23.2-7.8-31.3
								C309.8,344.4,297.7,338.8,284.7,338.8"/>
						</g>
					</g>
				</g>
				<g>
					<g>
						<path class="st4" d="M281.7,327.5h-81.1c-4.7,0-8.6-3.8-8.6-8.6v-53c0-4.7,3.8-8.6,8.6-8.6h81.1c4.7,0,8.6,3.8,8.6,8.6v53
							C290.3,323.7,286.4,327.5,281.7,327.5z"/>
					</g>
				</g>
				<g>
					<g>
						<g>
							<path class="st4" d="M290.3,273c0,0.1-22.1,0.3-49.3,0.3c-27.3,0-49.3-0.1-49.3-0.3c0-0.1,22.1-0.3,49.3-0.3
								C268.2,272.8,290.3,272.9,290.3,273z"/>
						</g>
					</g>
				</g>
				<g>
					<g>
						<g>
							<path class="st4" d="M356,332.1c0,0.1-29.5,0.3-65.8,0.3c-36.4,0-65.9-0.1-65.9-0.3s29.5-0.3,65.9-0.3
								C326.5,331.9,356,332,356,332.1z"/>
						</g>
					</g>
				</g>
				<g>
					<g>
						<path class="st15" d="M356.1,327.5c0,0,2.2-2.6,2.4-5.9c0.2-3.3-1.3-7.4-4.8-7.4h-45.3c-7.3,0-13.3,6-13.3,13.3l0,0H356.1z"/>
					</g>
				</g>
				<g>
					<g>
						<path class="st8" d="M415.8,279.9l-7.9-16.4c-2.2-4.7-0.4-10.2,4-12.9l23.6-14.1c1.2-0.7,2.6-1.1,4.1-1.1h5.1l2,33.2l-7.9,3
							l5,8.1L415.8,279.9z"/>
					</g>
				</g>
				<g>
					<g>
						<path class="st7" d="M444.7,236.7c0,0,8.1,1.8,9.1,14.3c1,12.4-7.1,16.3-7.1,16.3L444.7,236.7z"/>
					</g>
				</g>
				<g>
					<g>
						<path class="st4" d="M418.5,257.1c0,0-16.3,7.7-18.3,9c-1.4,0.9-2.6,2.4-1.5,5.1c1.8,4.6,9.5,0.3,9.5,0.3l15.2-7.6
							c0,0,5.8-2.8,3.7-6.2C424.7,253.8,418.5,257.1,418.5,257.1z"/>
					</g>
				</g>
				<g>
					<g>
						<path class="st12" d="M395.5,254.3c0,0,15.3,2.6,16.6,3s6.4,2.8,6.7,4.3c0.3,1.6,0,6.1,0,6.1s-0.9,0.8-1.5-0.7
							c-0.6-1.5-0.5-4.5-0.5-4.5l-2.9-1.1l1.6,2.8l0.3,6.5c0,0-2-0.2-2.4-1.7c-0.4-1.6-0.4-3.3-0.4-3.3l-2.1-1.8l1.6,2.1l0.5,4.7
							c0,0-1.5,0.5-2-0.5c-0.5-1-0.5-4.1-0.5-4.1l-5.9-2.1l-3.9,2.2l-6.1-3.4L395.5,254.3z"/>
					</g>
				</g>
				<g>
					<g>
						<path class="st4" d="M419.3,232.9c0,6.2-2.8,11.2-6.4,11.2c-3.5,0-6.4-5-6.4-11.2c0-6.2,2.8-11.2,6.4-11.2
							C416.5,221.7,419.3,226.8,419.3,232.9z"/>
					</g>
				</g>
				<g>
					<g>
						<path class="st4" d="M414,240.7l3.5,12.1c1.6-0.8,1.9-2.3,1.6-3.6c-0.9-4.1-1.4-7.1-2.3-10.7C416.7,238.1,414,240.7,414,240.7
							"/>
					</g>
				</g>
				<g class="st11">
					<g>
						<path d="M344.8,387.3c-0.3-1-0.7-2-1-3.1c-0.3-1-0.7-2-0.9-3c-0.5-1.7-0.8-3.5-0.9-4.6c-5.9,24,3.1,40.9,18.6,42.1
							c22.6,1.7,50.1,3,61.3,0.1c20.3-5.3,27.8-22.3,29.5-25.1c1.8-2.8,17.9-32.3,8-60.8c-9.9-28.4-27.2-58.6-27.2-58.6l-16.5,5.5
							c0,0,3,14,7.8,30.8c5.2,18.5,12.3,47.4,11.9,64.3c-0.4,16.9-9.4,28.3-9.4,28.3h-74.7C351.3,403.3,349.7,401.7,344.8,387.3"/>
					</g>
				</g>
				<g>
					<g>
						<path class="st8" d="M186.4,374.5l0.5-5.7l136.3,15.7c7.7,0.9,13,8.1,11.7,15.7l-0.6,3.5l-141-20.5
							C189,382.6,186,378.8,186.4,374.5z"/>
					</g>
				</g>
				<g class="st9">
					<g>
						<path d="M186.4,374.5l0.5-5.7l136.3,15.7c7.7,0.9,13,8.1,11.7,15.7l-0.6,3.5l-141-20.5C189,382.6,186,378.8,186.4,374.5z"/>
					</g>
				</g>
				<g class="st16">
					<g>
						<g>
							<path d="M451.4,412.6c0,0,30-33,36.2-58.9c2.1,0,6.9,0.2,9.3,0.7C496.8,354.4,479.1,402.6,451.4,412.6z"/>
						</g>
					</g>
				</g>
				<g>
					<g>
						<g>
							<path class="st4" d="M487.1,342.1c0,0,0.1,0.3,0.2,0.8c0.1,0.6,0.2,1.4,0.3,2.4c0.2,2.1,0.3,5.2-0.2,9
								c-0.5,3.8-1.8,8.1-4,12.7c-2.1,4.6-5,9.3-7.9,14.2c-6,9.9-12.7,18-17.6,23.7c-2.4,2.9-4.5,5.2-5.9,6.8
								c-0.7,0.8-1.2,1.4-1.6,1.8c-0.4,0.4-0.6,0.6-0.6,0.6c0,0,0.2-0.2,0.5-0.7c0.4-0.5,0.9-1.1,1.5-1.9c1.4-1.7,3.3-4,5.7-6.9
								c4.8-5.8,11.4-13.9,17.4-23.8c3-4.9,5.9-9.6,8-14.1c2.1-4.5,3.4-8.8,4-12.5c0.6-3.7,0.5-6.8,0.4-8.9
								c-0.1-1.1-0.2-1.9-0.2-2.4C487.1,342.4,487.1,342.1,487.1,342.1z"/>
						</g>
					</g>
				</g>
				<g>
					<g>
						<g>
							<path class="st4" d="M435.3,412.4c-0.1,0.1-2.3-1.8-4.8-4.3c-2.6-2.5-4.5-4.6-4.4-4.7c0.1-0.1,2.3,1.8,4.8,4.3
								C433.4,410.2,435.4,412.3,435.3,412.4z"/>
						</g>
					</g>
				</g>
				<g>
					<g>
						<g>
							<path class="st4" d="M346.2,411.4c-0.1-0.1,0.7-2.1,2.2-4.3c1.5-2.2,3.1-3.7,3.2-3.6c0.1,0.1-1.3,1.7-2.7,3.9
								C347.4,409.6,346.4,411.4,346.2,411.4z"/>
						</g>
					</g>
				</g>
				<g>
					<g>
						<g>
							<path class="st4" d="M288.6,430.4c-0.1-0.1,2.2-1.5,4.1-5.2c1-1.8,1.8-4.2,2-6.8c0.2-2.7-0.1-5.7-1.5-8.5
								c-1.4-2.8-3.5-5-5.7-6.5c-2.2-1.5-4.6-2.4-6.6-2.7c-4.1-0.8-6.6,0.1-6.6-0.1c0,0,0.1-0.1,0.4-0.1c0.3-0.1,0.7-0.2,1.3-0.3
								c1.1-0.2,2.9-0.2,4.9,0.1c2.1,0.3,4.5,1.2,6.8,2.7c2.3,1.5,4.5,3.8,5.9,6.7c1.4,2.9,1.7,6.1,1.5,8.8c-0.3,2.8-1.1,5.2-2.2,7
								c-1,1.8-2.1,3.1-3,3.9c-0.4,0.4-0.8,0.7-1,0.9C288.7,430.4,288.6,430.4,288.6,430.4z"/>
						</g>
					</g>
				</g>
				<g>
					<g>
						<g>
							<path class="st4" d="M238.8,420c-0.1,0-0.4-2.1-0.5-4.8c-0.1-2.7-0.1-4.8,0-4.8c0.1,0,0.4,2.1,0.5,4.8
								C239,417.8,239,420,238.8,420z"/>
						</g>
					</g>
				</g>
				<g>
					<g>
						<g>
							<path class="st4" d="M242.4,420c-0.1,0-0.5-2.1-0.9-4.8c-0.3-2.7-0.5-4.8-0.4-4.9c0.1,0,0.5,2.1,0.9,4.8
								C242.4,417.8,242.6,420,242.4,420z"/>
						</g>
					</g>
				</g>
				<g>
					<g>
						<g>
							<path class="st4" d="M298.6,327.5c0,0.1-16.6,0.3-37,0.3c-20.4,0-37-0.1-37-0.3c0-0.1,16.6-0.3,37-0.3
								C282.1,327.2,298.6,327.4,298.6,327.5z"/>
						</g>
					</g>
				</g>
				<g>
					<g>
						<g>
							<path class="st4" d="M245,327.4c-0.1,0-0.3-19-0.3-42.4c0-23.4,0.1-42.4,0.3-42.4c0.1,0,0.3,19,0.3,42.4
								C245.2,308.5,245.1,327.4,245,327.4z"/>
						</g>
					</g>
				</g>
				<g>
					<g>
						<g>
							<path class="st4" d="M234.8,327.4c-0.1,0,0.6-19,1.6-42.4c1-23.4,2-42.3,2.1-42.3c0.1,0-0.6,19-1.6,42.4
								C235.9,308.4,235,327.4,234.8,327.4z"/>
						</g>
					</g>
				</g>
			</g>
			<g>
				<g>
					<g>
						<g>
							<path class="st15" d="M211.9,443c0,0-0.2-0.1-0.4-0.4c-0.3-0.3-0.7-0.7-1.2-1.3c-1-1.2-2.3-3-3.7-5.4
								c-2.8-4.8-5.5-12.2-5.5-20.8c0-8.5,2.8-16,5.6-20.7c1.4-2.4,2.7-4.2,3.7-5.4c0.5-0.6,0.9-1,1.2-1.3c0.3-0.3,0.4-0.4,0.4-0.4
								s-0.1,0.2-0.4,0.5c-0.2,0.3-0.6,0.8-1.1,1.4c-0.9,1.2-2.2,3-3.6,5.4c-2.7,4.8-5.4,12.1-5.4,20.5c0,8.4,2.6,15.8,5.3,20.6
								c1.3,2.4,2.6,4.3,3.5,5.5c0.4,0.6,0.8,1.1,1.1,1.4C211.8,442.8,211.9,443,211.9,443z"/>
						</g>
					</g>
				</g>
			</g>
		</g>
		<g>
			<g>
				<g>
					<g>
						<g>
							<g>
								<g>
									<g>
										<path class="st15" d="M355.1,366.8l-0.3,0.6l-6,11.3l-8.4,8.1l16.9,22.5l14.1-2.3c0,0-1.6-3.2-8.6-3.8l-2.7-13.4l9.9-15.4
											"/>
									</g>
								</g>
							</g>
							<g>
								<g>
									<g>
										<polygon class="st14" points="340.4,386.9 357.2,409.3 371.3,407 369.4,405.2 357.8,406.4 342.2,385.2 										"/>
									</g>
								</g>
							</g>
						</g>
						<g>
							<g>
								<g>
									<g>
										<path class="st4" d="M361.5,397c-0.1,0.2-1-0.2-2,0c-1.1,0.2-1.8,0.8-1.9,0.7c-0.1-0.1,0.5-1.1,1.8-1.3
											C360.7,396.2,361.7,396.9,361.5,397z"/>
									</g>
								</g>
							</g>
						</g>
						<g>
							<g>
								<g>
									<g>
										<path class="st4" d="M360.8,393.7c-0.1,0.1-0.9-0.6-2-0.6c-1.2,0-2,0.6-2.1,0.5c-0.1-0.1,0.1-0.3,0.4-0.6
											c0.4-0.3,1-0.5,1.7-0.5c0.7,0,1.3,0.3,1.6,0.6C360.7,393.4,360.8,393.6,360.8,393.7z"/>
									</g>
								</g>
							</g>
						</g>
						<g>
							<g>
								<g>
									<g>
										<path class="st4" d="M360.1,389.4c-0.1,0.1-0.8-0.6-1.8-0.8c-1-0.2-1.9,0.3-2,0.1c0-0.1,0.1-0.3,0.5-0.5
											c0.4-0.2,1-0.4,1.6-0.3c0.7,0.1,1.2,0.5,1.4,0.8C360.1,389.1,360.2,389.3,360.1,389.4z"/>
									</g>
								</g>
							</g>
						</g>
						<g>
							<g>
								<g>
									<g>
										<path class="st4" d="M363.3,385.4c-0.2,0.1-0.7-0.6-1.7-1.1c-1-0.4-1.9-0.4-1.9-0.5c-0.1-0.2,1-0.6,2.2,0
											C363.1,384.3,363.5,385.4,363.3,385.4z"/>
									</g>
								</g>
							</g>
						</g>
						<g>
							<g>
								<g>
									<g>
										<path class="st4" d="M364.7,382.2c-0.1,0.1-0.6-0.4-1.5-1.3c-0.5-0.5-1-1-1.5-1.5c-0.3-0.3-0.6-0.5-0.8-1
											c-0.1-0.3-0.2-0.6-0.1-0.9c0.1-0.3,0.5-0.6,0.8-0.6c0.6,0,1,0.2,1.4,0.5c0.4,0.2,0.7,0.5,1,0.8c0.6,0.6,0.9,1.3,1.1,1.9
											c0.3,1.2,0.1,2,0,2c-0.1,0,0-0.8-0.4-1.8c-0.2-0.5-0.5-1.1-1.1-1.6c-0.3-0.3-0.6-0.5-0.9-0.7c-0.3-0.2-0.8-0.4-1.1-0.4
											c-0.1,0-0.2,0.1-0.2,0.2c0,0.1,0,0.3,0,0.4c0.1,0.3,0.5,0.6,0.7,0.9c0.5,0.5,0.9,1.1,1.4,1.6
											C364.3,381.6,364.8,382.2,364.7,382.2z"/>
									</g>
								</g>
							</g>
						</g>
						<g>
							<g>
								<g>
									<g>
										<path class="st4" d="M365.3,382.6c-0.1,0-0.1-0.7,0.5-1.7c0.6-0.9,2.1-2,4-1.4c0.1,0.1,0.3,0.3,0.3,0.5
											c0,0.2,0,0.4-0.1,0.5c-0.1,0.2-0.3,0.4-0.4,0.5c-0.3,0.3-0.6,0.5-0.9,0.7c-0.6,0.4-1.2,0.7-1.8,0.8
											c-1.1,0.3-1.8,0.2-1.8,0.1c0-0.1,0.7-0.2,1.6-0.5c0.5-0.2,1-0.5,1.6-0.9c0.3-0.2,0.5-0.4,0.8-0.7c0.1-0.1,0.3-0.3,0.3-0.4
											c0-0.1,0-0.1,0-0.1c-0.1,0-0.3-0.1-0.4-0.1c-0.2,0-0.4,0-0.5,0c-0.4,0-0.7,0.1-1,0.2c-0.6,0.2-1.1,0.6-1.4,1
											C365.5,381.9,365.4,382.6,365.3,382.6z"/>
									</g>
								</g>
							</g>
						</g>
						<g>
							<g>
								<g>
									<path class="st14" d="M351.5,384.6c0.2,0.9-0.5,1.8-1.4,1.9c-0.9,0.2-1.8-0.5-1.9-1.4c-0.2-0.9,0.5-1.8,1.4-1.9
										C350.5,383,351.4,383.7,351.5,384.6z"/>
								</g>
							</g>
						</g>
					</g>
				</g>
				<g>
					<g>
						<g>
							<g>
								<g>
									<path class="st15" d="M406.3,377.6l4.5,29.3l36.5-5.4c-0.7-3.5-20.6-7.6-20.6-7.6l-2.1-18.9L406.3,377.6z"/>
								</g>
							</g>
						</g>
						<g>
							<g>
								<g>
									<g>
										<path class="st14" d="M415.2,394c-0.7,0.3-1,1.2-0.8,1.9c0.3,0.7,1.1,1.1,1.8,0.8c0.7-0.3,1.2-1.3,0.8-2
											c-0.3-0.7-1.4-1-2-0.6"/>
									</g>
								</g>
							</g>
						</g>
						<g>
							<g>
								<g>
									<path class="st14" d="M410.8,406.9l-0.3-3l35.1-4.1c0,0,1.7,0.5,1.7,1.6L410.8,406.9z"/>
								</g>
							</g>
						</g>
						<g>
							<g>
								<g>
									<g>
										<path class="st4" d="M427.2,393.6c0,0.2-0.9,0.4-1.6,1.1c-0.8,0.7-1.1,1.5-1.3,1.5c-0.2,0-0.1-1.1,0.9-1.9
											C426.1,393.4,427.3,393.4,427.2,393.6z"/>
									</g>
								</g>
							</g>
						</g>
						<g>
							<g>
								<g>
									<g>
										<path class="st4" d="M431.3,394.6c0.1,0.2-0.7,0.6-1.2,1.4c-0.5,0.8-0.5,1.7-0.7,1.7c-0.2,0.1-0.4-1,0.2-2
											C430.2,394.7,431.3,394.4,431.3,394.6z"/>
									</g>
								</g>
							</g>
						</g>
						<g>
							<g>
								<g>
									<g>
										<path class="st4" d="M434.2,398.9c-0.2,0.1-0.5-0.8-0.2-1.8c0.3-1,1.1-1.6,1.2-1.4c0.1,0.1-0.3,0.7-0.6,1.6
											C434.3,398,434.3,398.8,434.2,398.9z"/>
									</g>
								</g>
							</g>
						</g>
						<g>
							<g>
								<g>
									<g>
										<path class="st4" d="M426.3,389.3c-0.1,0.2-0.9,0-1.9,0.3c-1,0.2-1.7,0.7-1.8,0.5c-0.1-0.1,0.5-0.9,1.7-1.1
											C425.4,388.7,426.3,389.2,426.3,389.3z"/>
									</g>
								</g>
							</g>
						</g>
						<g>
							<g>
								<g>
									<g>
										<path class="st4" d="M424.8,385.1c0,0.1-0.7,0.3-1.8,0.3c-0.6,0-1.3-0.1-2-0.3c-0.4-0.1-0.7-0.2-1.1-0.4
											c-0.2-0.1-0.4-0.2-0.6-0.3c-0.2-0.2-0.4-0.6-0.2-0.9c0.1-0.3,0.5-0.5,0.7-0.5c0.3,0,0.5,0,0.7,0c0.4,0,0.8,0.1,1.2,0.2
											c0.7,0.2,1.4,0.5,1.8,0.9c1,0.7,1.4,1.3,1.3,1.3c-0.1,0.1-0.6-0.4-1.5-0.9c-0.5-0.3-1.1-0.5-1.8-0.7
											c-0.3-0.1-0.7-0.1-1.1-0.2c-0.4,0-0.7,0-0.8,0.2c0,0.1,0,0.1,0.1,0.2c0.1,0.1,0.3,0.2,0.5,0.3c0.4,0.2,0.7,0.3,1,0.4
											c0.7,0.2,1.3,0.3,1.9,0.4C424.1,385.1,424.8,385,424.8,385.1z"/>
									</g>
								</g>
							</g>
						</g>
						<g>
							<g>
								<g>
									<g>
										<path class="st4" d="M424.6,385.4c-0.1,0-0.5-0.5-0.7-1.7c-0.1-0.6-0.2-1.3,0-2c0.1-0.4,0.2-0.8,0.3-1.2
											c0.2-0.4,0.3-0.9,1-1.1c0.4-0.1,0.7,0.2,0.8,0.4c0.2,0.2,0.2,0.4,0.3,0.6c0.1,0.4,0.2,0.8,0.2,1.2c0,0.8-0.2,1.5-0.5,2
											c-0.6,1.1-1.3,1.4-1.3,1.3c-0.1-0.1,0.5-0.5,0.9-1.5c0.2-0.5,0.4-1.1,0.3-1.8c0-0.3-0.1-0.7-0.2-1.1
											c-0.1-0.4-0.3-0.7-0.4-0.6c-0.2,0-0.4,0.4-0.5,0.7c-0.1,0.4-0.2,0.7-0.3,1.1c-0.1,0.7-0.1,1.3-0.1,1.9
											C424.4,384.7,424.7,385.4,424.6,385.4z"/>
									</g>
								</g>
							</g>
						</g>
					</g>
				</g>
				<g>
					<g>
						<polyline class="st4" points="377.6,308.9 346.4,377 367,389.4 410.3,307.4 						"/>
					</g>
				</g>
				<g>
					<g>
						<path class="st4" d="M429.2,390.9l-22.4,3.6l-13.4-80.1l-66.3,4.8c-1.8,0.1-3.5,0-5.2-0.5c-18.6-5.1-16.1-28.9-14.3-32.7
							l91.8-2.6c10-0.3,18.5,7,19.9,16.8L429.2,390.9z"/>
					</g>
				</g>
				<g>
					<g>
						<g>
							<g>
								<g>
									<g>
										<g>
											<g>
												<g>
													<g>
														<path class="st8" d="M306.5,289.8l0.3-33.9c0,0-4.4-22-5.7-30.7c-2-13.4-4.8-19.8,17.3-29.4l4.8-1.9l7.5,0.1
															c8.9,0.7,18.2,8.7,18.5,14l8.6,76.3L306.5,289.8z"/>
													</g>
												</g>
											</g>
										</g>
									</g>
								</g>
							</g>
						</g>
					</g>
				</g>
				<g>
					<g>
						<g>
							<g>
								<path class="st8" d="M307.9,203.7c0,0-6.2,13.4-5,25.6l23.2,22.2c5.2,5.8,11.7,8.2,20,8.7l47.9,5.2l1.3-12.5l-45.6-12.9
									c-1.8-0.3-2.7-2.2-4.1-3.4L307.9,203.7"/>
							</g>
						</g>
					</g>
				</g>
				<g>
					<g>
						<g>
							<path class="st4" d="M304.2,207.6c0,0,0.3-0.3,0.9-0.6c0.7-0.3,1.7-0.7,3.1-0.9c1.4-0.2,3.2-0.4,5.2,0c0.5,0.1,1,0.2,1.5,0.5
								c0.5,0.3,0.9,0.6,1.4,1c0.9,0.7,1.9,1.5,2.8,2.4c1.9,1.8,3.7,4.1,5.9,6.4c2.1,2.3,4.5,4.8,7,7.4c2.5,2.6,5.3,5.3,8.2,8.1
								c1.5,1.4,3,2.8,4.6,4.2c0.8,0.7,1.6,1.4,2.4,2.2c0.8,0.7,1.7,1.4,2.7,1.6l0,0l0,0c13.6,3.8,29.1,8.2,45.6,12.9l0.2,0.1l0,0.2
								c-0.1,0.9-0.2,1.8-0.3,2.8c-0.4,3.3-0.7,6.6-1,9.7l0,0.3l-0.3,0c-7-0.8-13.8-1.5-20.3-2.2c-3.3-0.4-6.5-0.7-9.6-1.1
								c-3.1-0.3-6.2-0.6-9.2-0.9c-3-0.3-5.9-0.7-8.7-1.1c-2.8-0.4-5.5-0.9-8.1-1.9c-2.5-0.9-4.8-2.2-6.8-3.6
								c-2-1.4-3.9-2.9-5.6-4.3c-6.9-5.8-11.9-11.1-15.4-14.6c-1.7-1.8-3.1-3.2-3.9-4.2c-0.4-0.5-0.8-0.8-1-1.1
								c-0.2-0.3-0.3-0.4-0.3-0.4s0.1,0.1,0.4,0.4c0.2,0.3,0.6,0.6,1,1.1c0.9,0.9,2.3,2.3,4,4.1c3.5,3.5,8.6,8.7,15.5,14.5
								c1.7,1.4,3.6,2.9,5.6,4.3c2,1.4,4.2,2.7,6.7,3.6c2.5,0.9,5.2,1.4,8,1.8c2.8,0.4,5.7,0.7,8.7,1.1c3,0.3,6.1,0.6,9.2,0.9
								c3.1,0.3,6.3,0.7,9.6,1c6.5,0.7,13.3,1.5,20.3,2.2l-0.3,0.2c0.3-3.1,0.7-6.4,1-9.7c0.1-1,0.2-1.9,0.3-2.8l0.2,0.3
								c-16.5-4.7-32-9.1-45.6-13l0,0c-1.2-0.2-2.1-1-2.9-1.7c-0.8-0.8-1.5-1.5-2.4-2.2c-1.6-1.4-3.1-2.8-4.6-4.2
								c-2.9-2.8-5.6-5.5-8.2-8.1c-2.5-2.6-4.9-5.1-7-7.4c-2.1-2.3-3.9-4.6-5.8-6.4c-0.9-0.9-1.9-1.7-2.8-2.5
								c-0.5-0.4-0.9-0.7-1.4-1c-0.5-0.3-1-0.4-1.5-0.5c-2-0.4-3.7-0.3-5.1-0.1c-1.4,0.2-2.4,0.5-3.1,0.8
								C304.5,207.3,304.2,207.6,304.2,207.6z"/>
						</g>
					</g>
				</g>
			</g>
			<g>
				<g>
					<g>
						<g>
							<g>
								<g>
									<g>
										<g>
											<g>
												<g>
													<g>
														<g>
															<g>
																<g>
																	<g>
																		<g>
																			<g>
																				<g>
																					<g>
																						<path class="st12" d="M316.1,164.6l2.3,33c0.4,5.4,4.9,9.6,10.3,9.6l0,0c5.9,0,10.7-5,10.3-11
																							c-0.2-3.1-0.4-5.7-0.4-5.7s8-1.2,8.1-9.2c0.1-4.6-0.7-15.1-1.4-23.1c-0.5-5.4-5-9.6-10.4-9.6H330
																							C321.7,149.1,315.4,156.3,316.1,164.6z"/>
																					</g>
																				</g>
																			</g>
																		</g>
																	</g>
																</g>
															</g>
														</g>
													</g>
												</g>
											</g>
											<g>
												<g>
													<g>
														<g>
															<g>
																<g>
																	<g>
																		<g>
																			<g>
																				<g>
																					<g>
																						<path class="st17" d="M338.6,190.4c0,0-5,0.4-10.4-3c0,0,2.5,5.7,10.4,5L338.6,190.4z"/>
																					</g>
																				</g>
																			</g>
																		</g>
																	</g>
																</g>
															</g>
														</g>
													</g>
												</g>
											</g>
										</g>
									</g>
								</g>
								<g>
									<g>
										<g>
											<g>
												<g>
													<g>
														<g>
															<g>
																<g>
																	<g>
																		<g>
																			<g>
																				<g>
																					<g>
																						<g>
																							<g>
																								<g>
																									<path class="st4" d="M343.5,168.4c0,0.6-0.5,1.1-1.1,1.2c-0.6,0-1.2-0.4-1.2-1c0-0.6,0.5-1.1,1.1-1.2
																										C342.9,167.4,343.4,167.8,343.5,168.4z"/>
																								</g>
																							</g>
																						</g>
																					</g>
																				</g>
																			</g>
																		</g>
																	</g>
																</g>
															</g>
														</g>
														<g>
															<g>
																<g>
																	<g>
																		<g>
																			<g>
																				<g>
																					<g>
																						<g>
																							<g>
																								<g>
																									<g>
																										<path class="st4" d="M343.9,166.2c-0.1,0.1-1-0.5-2.2-0.5c-1.2,0-2.1,0.6-2.3,0.5
																											c-0.1-0.1,0.1-0.3,0.5-0.6c0.4-0.3,1-0.6,1.8-0.6c0.8,0,1.4,0.3,1.8,0.6
																											C343.8,165.8,344,166.1,343.9,166.2z"/>
																									</g>
																								</g>
																							</g>
																						</g>
																					</g>
																				</g>
																			</g>
																		</g>
																	</g>
																</g>
															</g>
														</g>
													</g>
													<g>
														<g>
															<g>
																<g>
																	<g>
																		<g>
																			<g>
																				<g>
																					<g>
																						<g>
																							<g>
																								<g>
																									<path class="st4" d="M331.9,168.4c0,0.6-0.5,1.1-1.1,1.2c-0.6,0-1.2-0.4-1.2-1c0-0.6,0.5-1.1,1.1-1.2
																										C331.4,167.4,331.9,167.8,331.9,168.4z"/>
																								</g>
																							</g>
																						</g>
																					</g>
																				</g>
																			</g>
																		</g>
																	</g>
																</g>
															</g>
														</g>
														<g>
															<g>
																<g>
																	<g>
																		<g>
																			<g>
																				<g>
																					<g>
																						<g>
																							<g>
																								<g>
																									<g>
																										<path class="st4" d="M331.8,166.4c-0.1,0.1-1-0.5-2.2-0.5c-1.2,0-2.1,0.6-2.3,0.5
																											c-0.1-0.1,0.1-0.3,0.5-0.6c0.4-0.3,1-0.6,1.8-0.6c0.8,0,1.4,0.3,1.8,0.6
																											C331.8,166.1,331.9,166.3,331.8,166.4z"/>
																									</g>
																								</g>
																							</g>
																						</g>
																					</g>
																				</g>
																			</g>
																		</g>
																	</g>
																</g>
															</g>
														</g>
													</g>
													<g>
														<g>
															<g>
																<g>
																	<g>
																		<g>
																			<g>
																				<g>
																					<g>
																						<g>
																							<g>
																								<g>
																									<path class="st4" d="M336.3,175.5c0-0.1,0.8-0.2,2-0.4c0.3,0,0.6-0.1,0.7-0.3c0.1-0.2-0.1-0.6-0.2-0.9
																										c-0.3-0.8-0.6-1.6-0.9-2.4c-1.3-3.4-2.2-6.2-2.1-6.2c0.1-0.1,1.3,2.7,2.6,6.1c0.3,0.8,0.6,1.6,0.9,2.4
																										c0.1,0.4,0.3,0.8,0.2,1.2c-0.1,0.2-0.3,0.4-0.5,0.5c-0.2,0.1-0.4,0.1-0.5,0.1
																										C337.1,175.6,336.3,175.6,336.3,175.5z"/>
																								</g>
																							</g>
																						</g>
																					</g>
																				</g>
																			</g>
																		</g>
																	</g>
																</g>
															</g>
														</g>
													</g>
													<g>
														<g>
															<g>
																<g>
																	<g>
																		<g>
																			<g>
																				<g>
																					<g>
																						<g>
																							<g>
																								<g>
																									<path class="st4" d="M332.7,176.4c0.2,0,0.2,1.3,1.3,2.3c1.1,0.9,2.6,0.8,2.6,1c0,0.1-0.3,0.3-0.9,0.3
																										c-0.6,0-1.4-0.2-2.1-0.7c-0.7-0.6-1-1.4-1-1.9C332.4,176.7,332.6,176.3,332.7,176.4z"/>
																								</g>
																							</g>
																						</g>
																					</g>
																				</g>
																			</g>
																		</g>
																	</g>
																</g>
															</g>
														</g>
													</g>
												</g>
											</g>
										</g>
										<g>
											<g>
												<g>
													<g>
														<g>
															<g>
																<g>
																	<g>
																		<g>
																			<g>
																				<g>
																					<path class="st4" d="M332.1,161.6c-0.1,0.3-1.3,0.2-2.8,0.3c-1.4,0.1-2.6,0.6-2.8,0.3
																						c-0.1-0.1,0.1-0.5,0.6-0.8c0.5-0.3,1.2-0.6,2.1-0.7c0.9-0.1,1.7,0,2.2,0.3
																						C331.9,161.2,332.2,161.4,332.1,161.6z"/>
																				</g>
																			</g>
																		</g>
																	</g>
																</g>
															</g>
														</g>
													</g>
												</g>
											</g>
										</g>
										<g>
											<g>
												<g>
													<g>
														<g>
															<g>
																<g>
																	<g>
																		<g>
																			<g>
																				<g>
																					<path class="st4" d="M343.4,162.6c-0.2,0.3-1.1,0-2.1,0c-1,0-1.9,0.2-2.1-0.1c-0.1-0.1,0-0.4,0.4-0.7
																						c0.4-0.3,1-0.5,1.7-0.5c0.7,0,1.3,0.3,1.7,0.6C343.4,162.2,343.5,162.5,343.4,162.6z"/>
																				</g>
																			</g>
																		</g>
																	</g>
																</g>
															</g>
														</g>
													</g>
												</g>
											</g>
										</g>
									</g>
								</g>
								<g>
									<g>
										<g>
											<g>
												<g>
													<g>
														<g>
															<g>
																<g>
																	<g>
																		<g>
																			<g>
																				<path class="st12" d="M318.8,170.6c-0.1-0.1-5.5-1.6-5.3,3.8c0.2,5.5,5.6,4.2,5.6,4
																					C319.1,178.3,318.8,170.6,318.8,170.6z"/>
																			</g>
																		</g>
																	</g>
																</g>
															</g>
														</g>
													</g>
												</g>
											</g>
										</g>
									</g>
									<g>
										<g>
											<g>
												<g>
													<g>
														<g>
															<g>
																<g>
																	<g>
																		<g>
																			<g>
																				<g>
																					<path class="st17" d="M317.4,176.4c0,0-0.1,0.1-0.3,0.1c-0.2,0.1-0.4,0.1-0.7,0c-0.6-0.2-1.1-1.1-1.2-2.1
																						c0-0.5,0.1-1,0.2-1.4c0.2-0.4,0.4-0.7,0.7-0.8c0.3-0.1,0.5,0.1,0.6,0.2c0.1,0.2,0,0.3,0.1,0.3
																						c0,0,0.1-0.1,0.1-0.3c0-0.1-0.1-0.2-0.2-0.3c-0.1-0.1-0.3-0.2-0.5-0.1c-0.4,0-0.8,0.4-1,0.9
																						c-0.2,0.4-0.3,1-0.3,1.5c0.1,1.1,0.7,2.1,1.5,2.3c0.4,0.1,0.7,0,0.9-0.2C317.4,176.6,317.4,176.4,317.4,176.4z
																						"/>
																				</g>
																			</g>
																		</g>
																	</g>
																</g>
															</g>
														</g>
													</g>
												</g>
											</g>
										</g>
									</g>
								</g>
							</g>
						</g>
						<g>
							<g>
								<g>
									<g>
										<g>
											<g>
												<g>
													<path class="st4" d="M315.8,170.4c0.8-0.2,2.3,0.6,2.6,1.3c0.4,0.8,0.4,1.7,0.8,2.4c0.4,0.8,1.2,1.5,2,1.3
														c0.6-0.1,1-0.7,1.1-1.2c0.2-0.6,0.1-1.2,0-1.8c-0.3-2.5-0.9-5.1-1-7.6c-0.1-2.6,0.3-5.2,1.6-7.4
														c1.3-2.2,3.8-3.8,6.4-3.6c1.7,0.1,3.3,1,4.9,1.3c2,0.3,4.1-0.4,5.5-1.8c0.2-0.2,1-0.7,1-0.7c0-0.1-0.1-1.3-0.6-1.7
														c-3.3-3.1-9.4-4-13.8-2.8c-4.4,1.1-8.6,4.2-10.5,8.4C314.2,160.5,314.8,166.2,315.8,170.4"/>
												</g>
											</g>
										</g>
									</g>
								</g>
							</g>
						</g>
					</g>
				</g>
				<g>
					<g>
						<g>
							<g>
								<path class="st8" d="M345.3,156.9c0,0-20.9-6.7-30,11.4c0,0-1.4-4.5-1.4-7c0-1.6,1-11.3,10.9-14.3
									C324.9,147,339.9,141.3,345.3,156.9z"/>
							</g>
						</g>
					</g>
				</g>
				<g>
					<g>
						<g>
							<g>
								<path class="st4" d="M327.4,157.4c0.7,1.2,2.1,2,3.5,2.1c1.4,0.1,2.8-0.4,3.8-1.5c0.4,1,1.5,1.7,2.6,1.7
									c1.1-0.1,2.1-0.9,2.4-1.9c0.6,0.6,1.2,1.2,2,1.5c0.8,0.3,1.8,0.2,2.3-0.5c0.5-0.7,0.4-1.7-0.1-2.4c-0.5-0.7-1.3-1.1-2.1-1.4
									c-2.5-1-5.2-1.6-7.9-1.2c-2.7,0.4-5.3,1.7-6.9,3.8"/>
							</g>
						</g>
					</g>
				</g>
				<g class="st11">
					<g>
						<g>
							<g>
								<path d="M345.3,156.9c0,0-2.4-2.8-6.7-3c-6.2-0.3-17.7,3.2-23.3,14.4c0,0-1.4-4.5-1.4-7c0-1.6,1-11.3,10.9-14.3
									C324.9,147,339.9,141.3,345.3,156.9z"/>
							</g>
						</g>
					</g>
				</g>
				<g>
					<g>
						<g>
							<path class="st8" d="M316.2,166.2c3.1-4.8,7.4-8.7,12.2-11.7c4.8-3,12.8-6,18.3-7.4c1.6-0.4,3.4-0.8,5-0.5
								c1.7,0.3,3.3,1.4,3.7,3.1c0.5,2.1-3.1,5.3-4.9,6.5c-1.7,1.3-5.2,3.1-5.2,3.1s0-3.8-6.1-4.6
								C330.9,153.5,316.2,166.2,316.2,166.2z"/>
						</g>
					</g>
				</g>
			</g>
			<g class="st16">
				<g>
					<g>
						<path d="M308.8,234.2c2.2,5.2,4.3,11.6,7.5,16.3c3.1,4.7,7.3,8.9,12.5,11c6.5,2.7,14.3,3.2,20.8,0.4c0.5-0.2,1.6-0.5,1.5-1.1
							c0,0-2.2-0.2-2.8-0.4c-13.1-2.2-14.6-3.8-20.9-8.8C323.5,248.6,314.8,239.3,308.8,234.2"/>
					</g>
				</g>
			</g>
			<g>
				<g>
					<g>
						<path class="st4" d="M350.6,272.2c0,0-0.1,0.5-0.5,1.2c-0.4,0.8-1.1,1.8-2.1,3c-2,2.3-5.7,4.8-10.2,6.2
							c-4.5,1.4-8.8,1.6-11.8,1.8c-1.5,0.1-2.8,0.1-3.6,0.1c-0.9,0-1.3,0-1.3-0.1c0,0,0.5-0.1,1.3-0.1c1-0.1,2.2-0.1,3.6-0.2
							c3-0.2,7.3-0.5,11.7-1.9c4.4-1.4,8-3.8,10.1-6C349.8,273.9,350.5,272.1,350.6,272.2z"/>
					</g>
				</g>
			</g>
			<g>
				<g>
					<g>
						<path class="st15" d="M407.2,396.9c0,0,0-0.1-0.1-0.3c0-0.2-0.1-0.5-0.2-0.9c-0.2-0.8-0.4-2-0.6-3.5
							c-0.5-3.1-1.3-7.6-2.3-13.1c-1.9-11.1-4.5-26.3-7.3-43.1c-1.3-7.6-2.5-14.9-3.6-21.5l0.3,0.2c-11.7,0.9-21.6,1.6-28.7,2.1
							c-3.5,0.2-6.3,0.4-8.2,0.6c-0.9,0.1-1.7,0.1-2.2,0.1c-0.2,0-0.4,0-0.6,0c-0.1,0-0.2,0-0.2,0c0,0,0.1,0,0.2,0
							c0.2,0,0.3,0,0.6-0.1c0.5-0.1,1.3-0.1,2.2-0.2c1.9-0.2,4.7-0.4,8.2-0.7c7.1-0.6,17-1.4,28.7-2.3l0.2,0l0,0.2
							c1.1,6.6,2.3,13.9,3.6,21.5c2.8,16.8,5.3,32.1,7.2,43.1c0.9,5.5,1.6,10,2.1,13.1c0.2,1.5,0.4,2.7,0.5,3.6
							c0.1,0.4,0.1,0.7,0.1,0.9C407.2,396.8,407.2,396.9,407.2,396.9z"/>
					</g>
				</g>
			</g>
			<g>
				<g>
					<g>
						<path class="st15" d="M400.1,307.3c0.1,0.1-1.7,1.6-3.6,3.6c-2,2-3.5,3.8-3.6,3.7c-0.1-0.1,1.2-2,3.2-4.1
							C398.1,308.5,400,307.2,400.1,307.3z"/>
					</g>
				</g>
			</g>
		</g>
		<g>
			<g>
				<g>
					<path class="st4" d="M338.8,196.9c0,0,0.1,0.1,0.1,0.3c0.1,0.2,0.1,0.5,0.2,1c0.1,0.9,0,2.2-0.5,3.6c-0.5,1.5-1.6,3.1-3.3,4.3
						c-1.7,1.2-4,1.9-6.4,1.7c-2.4-0.2-4.6-1.1-6.2-2.3c-1.7-1.3-2.8-2.8-3.5-4.1c-0.7-1.4-1.1-2.6-1.4-3.4c-0.1-0.4-0.2-0.7-0.2-1
						c0-0.2,0-0.3,0-0.3c0.1,0,0.4,1.9,1.9,4.5c0.8,1.3,1.9,2.7,3.5,3.9c1.6,1.2,3.7,2,6,2.2c2.3,0.1,4.5-0.4,6.1-1.6
						c1.6-1.1,2.7-2.7,3.2-4.1c0.6-1.4,0.7-2.6,0.6-3.5C338.9,197.4,338.7,196.9,338.8,196.9z"/>
				</g>
			</g>
		</g>
		<g>
			<g>
				<path class="st18" d="M343.9,321.8"/>
			</g>
		</g>
		<g>
			<g>
				<g>
					<path class="st4" d="M352.9,240.6c0,0-0.1-0.4-0.2-1c-0.1-0.8-0.2-1.7-0.4-2.9c-0.3-2.5-0.8-5.8-1.2-9.5
						c-0.5-3.7-0.8-7.1-1-9.5c-0.1-1.2-0.2-2.2-0.2-2.9c0-0.7,0-1.1,0-1.1c0,0,0.1,0.4,0.2,1c0.1,0.8,0.2,1.7,0.4,2.9
						c0.3,2.5,0.7,5.8,1.2,9.5c0.5,3.7,0.8,7,1.1,9.5c0.1,1.2,0.2,2.2,0.2,2.9C352.9,240.2,352.9,240.6,352.9,240.6z"/>
				</g>
			</g>
		</g>
	</g>
</g>
</svg>
