<?xml version="1.0" encoding="utf-8"?>
<!-- Generator: Adobe Illustrator 23.0.5, SVG Export Plug-In . SVG Version: 6.00 Build 0)  -->
<svg version="1.1" id="testSVG" xmlns="http://www.w3.org/2000/svg" xmlns:xlink="http://www.w3.org/1999/xlink" x="0px" y="0px"
	 viewBox="0 0 300 300" style="enable-background:new 0 0 300 300;" xml:space="preserve">
<style type="text/css">
	.st0{clip-path:url(#SVGID_5_);}
	.st1{clip-path:url(#SVGID_6_);}
	.st2{fill:#231F20;}
	.st3{fill:#381F16;}
	.st4{fill:#FFFFFF;}
	.st5{fill:#FFEE00;}
	.st6{clip-path:url(#SVGID_8_);}
	.st7{fill:#522B22;}
	.st8{fill-rule:evenodd;clip-rule:evenodd;fill:#EBEDB4;}
	.st9{fill-rule:evenodd;clip-rule:evenodd;fill:#41271E;}
	.st10{clip-path:url(#SVGID_10_);}
</style>
<g>
	<g>
		<defs>
			<polygon id="SVGID_1_" points="1,1 2,1 1,2 			"/>
		</defs>
		<clipPath id="SVGID_2_">
			<use xlink:href="#SVGID_1_"  style="overflow:visible;"/>
		</clipPath>
	</g>
	<g>
		<defs>
			<polygon id="SVGID_3_" points="1,1 2,1 1,2 			"/>
		</defs>
		<defs>
			<polygon id="SVGID_4_" points="-1,-1 -2,-1 -1,-2 			"/>
		</defs>
		<clipPath id="SVGID_5_">
			<use xlink:href="#SVGID_3_"  style="overflow:visible;"/>
		</clipPath>
		<clipPath id="SVGID_6_" class="st0">
			<use xlink:href="#SVGID_4_"  style="overflow:visible;"/>
		</clipPath>
		<rect y="0" class="st1" width="300" height="300"/>
	</g>
</g>
<rect x="195" y="75" class="st2" width="10" height="10"/>
<g>
	<polygon class="st3" points="25,105 25,95 35,95 45,95 45,105 55,105 55,95 55,85 45,85 35,85 25,85 15,85 5,85 5,95 5,105 5,115 
		15,115 15,105 	"/>
	<polygon class="st3" points="25,175 15,175 15,165 5,165 5,175 5,185 5,195 15,195 25,195 25,185 	"/>
	<polygon class="st3" points="35,135 35,125 35,115 45,115 45,105 35,105 25,105 25,115 15,115 15,125 15,135 5,135 5,145 15,145 
		25,145 25,135 	"/>
	<polygon class="st3" points="25,175 35,175 45,175 45,165 45,155 35,155 35,145 25,145 25,155 15,155 15,165 25,165 	"/>
	<rect x="25" y="195" class="st3" width="10" height="10"/>
	<polygon class="st3" points="45,145 55,145 55,135 45,135 35,135 35,145 	"/>
	<rect x="35" y="185" class="st3" width="10" height="10"/>
	<rect x="55" y="115" class="st3" width="10" height="10"/>
	<rect x="65" y="105" class="st3" width="10" height="10"/>
	<polygon class="st3" points="85,95 85,85 75,85 65,85 65,95 75,95 	"/>
	<polygon class="st3" points="95,75 95,65 85,65 85,75 85,85 95,85 	"/>
	<polygon class="st3" points="105,25 105,35 115,35 115,25 115,15 105,15 105,5 95,5 95,15 85,15 85,25 85,35 95,35 95,25 	"/>
	<rect x="115" y="35" class="st3" width="10" height="10"/>
	<polygon class="st3" points="115,55 115,45 105,45 105,35 95,35 95,45 85,45 85,55 95,55 105,55 105,65 105,75 115,75 115,65 
		125,65 125,55 	"/>
	<rect x="125" y="65" class="st3" width="10" height="10"/>
	<polygon class="st3" points="145,35 145,25 155,25 165,25 165,15 155,15 145,15 135,15 125,15 125,25 135,25 135,35 135,45 145,45 
		155,45 155,35 	"/>
	<polygon class="st3" points="155,85 155,75 155,65 145,65 145,75 135,75 135,85 145,85 	"/>
	<polygon class="st3" points="165,45 175,45 175,55 185,55 195,55 195,45 195,35 185,35 185,25 185,15 175,15 175,25 165,25 165,35 
			"/>
	<rect x="185" y="5" class="st3" width="10" height="10"/>
	<rect x="185" y="65" class="st3" width="10" height="10"/>
	<polygon class="st3" points="195,35 205,35 215,35 215,25 205,25 205,15 195,15 195,25 	"/>
	<rect x="205" y="5" class="st3" width="10" height="10"/>
	<polygon class="st3" points="205,65 205,75 215,75 215,65 215,55 205,55 	"/>
	<rect x="85" y="105" class="st3" width="10" height="10"/>
	<polygon class="st3" points="95,255 95,245 85,245 85,255 85,265 85,275 85,285 85,295 95,295 105,295 115,295 115,285 125,285 
		125,275 115,275 105,275 105,285 95,285 95,275 105,275 105,265 95,265 	"/>
	<rect x="105" y="85" class="st3" width="10" height="10"/>
	<rect x="125" y="85" class="st3" width="10" height="10"/>
	<rect x="135" y="185" class="st3" width="10" height="10"/>
	<polygon class="st3" points="135,285 135,295 145,295 155,295 155,285 145,285 145,275 135,275 	"/>
	<rect x="145" y="95" class="st3" width="10" height="10"/>
	<polygon class="st3" points="145,185 155,185 155,175 155,165 145,165 145,155 145,145 135,145 125,145 125,155 125,165 135,165 
		135,175 145,175 	"/>
	<rect x="145" y="265" class="st3" width="10" height="10"/>
	<polygon class="st3" points="115,135 125,135 125,125 135,125 135,135 145,135 145,145 155,145 155,155 165,155 165,145 165,135 
		155,135 155,125 165,125 165,135 175,135 175,145 185,145 185,155 195,155 195,145 195,135 205,135 215,135 215,125 225,125 
		225,115 225,105 225,95 235,95 235,85 225,85 215,85 215,95 215,105 215,115 205,115 205,105 195,105 195,115 195,125 185,125 
		185,115 185,105 195,105 195,95 185,95 185,85 175,85 175,75 175,65 175,55 165,55 165,45 155,45 155,55 155,65 165,65 165,75 
		165,85 155,85 155,95 165,95 165,105 175,105 175,115 165,115 155,115 145,115 135,115 135,105 125,105 125,95 115,95 115,105 
		115,115 105,115 105,125 115,125 	"/>
	<polygon class="st3" points="155,195 155,205 155,215 165,215 165,205 175,205 175,195 165,195 	"/>
	<polygon class="st3" points="175,165 185,165 185,155 175,155 165,155 165,165 	"/>
	<path class="st3" d="M185,225h-10h-10v10h-10v-10h-10v-10v-10h-10h-10v-10v-10h10v-10h-10h-10v10h-10v-10H95v10H85v-10v-10H75H65
		v-10h10h10h10v10h10h10v-10h-10v-10h10v-10h-10v-10H95v10v10H85v-10v-10H75H65v10h10v10H65H55v10v10v10v10h10v-10h10v10H65v10h10
		v10H65v-10H55H45v10v10h10h10h10h10h10v-10H85v-10h10v10h10v-10h10v10h-10v10h10v10v10h-10v-10H95H85v10h10v10h10v10v10h10h10h10
		v-10h-10v-10h10h10h10h10h10h10v-10V225z M135,225h-10v-10h10V225z"/>
	<rect x="185" y="215" class="st3" width="10" height="10"/>
	<rect x="195" y="155" class="st3" width="10" height="10"/>
	<rect x="215" y="135" class="st3" width="10" height="10"/>
	<polygon class="st3" points="225,165 215,165 205,165 205,175 195,175 185,175 175,175 175,185 185,185 185,195 195,195 195,185 
		205,185 205,195 215,195 215,185 225,185 225,175 	"/>
	<rect x="225" y="225" class="st3" width="10" height="10"/>
	<polygon class="st3" points="235,275 235,265 225,265 225,275 215,275 215,285 215,295 225,295 235,295 245,295 245,285 235,285 	
		"/>
	<path class="st3" d="M245,185v-10h-10v10h-10v10h-10v10h-10v-10h-10v10v10h10v10h-10v10h10v10v10h-10v-10h-10v10h-10h-10v10h10h10
		v10h-10h-10v10h10v10h10h10h10v-10v-10h-10v-10h10h10v-10h10h10h10v10h10v-10h10h10v-10h10v-10h10v-10v-10v-10h-10h-10v10v10v10
		h-10v10h-10v-10v-10h10v-10v-10h-10h-10h-10v-10h10h10h10v-10h-10H245z M245,215v10v10v10h-10h-10h-10v-10v-10v-10h10h10H245z"/>
	<rect x="245" y="275" class="st3" width="10" height="10"/>
	<rect x="265" y="195" class="st3" width="10" height="10"/>
	<rect x="265" y="265" class="st3" width="10" height="10"/>
	<rect x="265" y="285" class="st3" width="10" height="10"/>
	<polygon class="st3" points="275,165 275,155 265,155 255,155 255,165 245,165 245,175 255,175 265,175 265,185 275,185 285,185 
		295,185 295,175 295,165 295,155 285,155 285,165 	"/>
	<polygon class="st3" points="275,255 275,265 285,265 295,265 295,255 295,245 285,245 285,255 	"/>
	<polygon class="st3" points="285,285 285,295 295,295 295,285 295,275 285,275 275,275 275,285 	"/>
	<polygon class="st3" points="295,105 295,95 285,95 285,85 275,85 265,85 265,95 255,95 255,85 245,85 245,95 235,95 235,105 
		245,105 255,105 255,115 265,115 265,125 275,125 275,135 265,135 255,135 255,125 255,115 245,115 235,115 235,125 235,135 
		235,145 235,155 245,155 255,155 255,145 265,145 275,145 275,155 285,155 285,145 285,135 285,125 295,125 295,115 285,115 
		285,105 	"/>
</g>
<path class="st3" d="M5,5v70h70V5H5z M15,15h50v50H15V15z"/>
<rect x="25" y="25" class="st3" width="30" height="30"/>
<rect x="245" y="25" class="st2" width="30" height="30"/>
<path class="st3" d="M225,5v70h70V5H225z M285,65h-50V15h50V65z"/>
<rect x="245" y="25" class="st2" width="30" height="30"/>
<rect x="245" y="25" class="st3" width="30" height="30"/>
<path class="st3" d="M5,295h70v-70H5V295z M15,285v-50h50v50H15z"/>
<rect x="25" y="245" class="st3" width="30" height="30"/>
<circle class="st4" cx="150" cy="150" r="40"/>
<g>
	<g id="XMLID_42_">
		<g>
			<circle class="st5" cx="150" cy="150" r="36.9"/>
		</g>
	</g>
	<g>
		<g>
			<g id="logotortazamarron.psd_4_">
				<g>
					<g>
						<defs>
							<rect id="SVGID_7_" x="139.5" y="135.9" width="42.3" height="42.9"/>
						</defs>
						<clipPath id="SVGID_8_">
							<use xlink:href="#SVGID_7_"  style="overflow:visible;"/>
						</clipPath>
						<g class="st6">
						</g>
					</g>
				</g>
			</g>
		</g>
	</g>
	<g id="XMLID_41_">
		<g>
			<path class="st7" d="M150,184.9c-19.2,0-34.9-15.6-34.9-34.9s15.6-34.9,34.9-34.9c19.2,0,34.9,15.6,34.9,34.9
				S169.2,184.9,150,184.9z M150,116.5c-18.5,0-33.5,15-33.5,33.5s15,33.5,33.5,33.5s33.5-15,33.5-33.5S168.5,116.5,150,116.5z"/>
		</g>
	</g>
	<path class="st8" d="M146.4,172.5c-1.7,0-3.4-1.7-4.9-4.8c-1.5-3-3.2-7.6-4.7-12.6c-1-3.3-3.1-10.3-2.5-15.7
		c-3.2,2.9-5.4,5.4-6.7,7.4c-0.7,1.1-1.4,2.2-1.9,3.2c-1.3,2.6-2.5,7.3-1.1,9.5c0.5,0.9,1.4,1.3,2.7,1.3l0,0c0.3,0,0.6,0,0.9-0.1
		c0.6-0.1,1.2-0.1,1.7-0.1c1.1,0,1.9,0.4,2.1,1.1c0.1,0.4,0.1,0.8-0.1,1.2c-0.3,0.5-0.9,0.9-1.9,1.1c-1,0.2-2.2,0.5-3.4,0.5
		c-0.2,0-0.5,0-0.7,0c-1.9-0.2-3.6-1.1-4.9-2.8c-1.8-2.3-2.5-5.8-2-8.9c0.6-3.1,2.3-6.5,5.2-10.2c2.5-3.2,5.6-6.1,9.1-8.6
		c6.1-4.4,12.7-8.8,15.2-10.5c0.1-0.1,0.3-0.1,0.5-0.1c0.1,0,0.3,0,0.4,0.1c0.3,0.2,0.4,0.5,0.4,0.8c0,0.1,0,0.5,0,0.9
		c0,2,0,2-0.2,2.3c-0.2,0.2-0.4,0.3-0.6,0.3l0,0c-0.1,0-0.2,0-0.3-0.1c-1.4,1.1-3.9,2.9-6.6,5.2c0.6,0.3,0.9,0.8,1.1,1.2
		c0.1,0.2,0.1,0.5,0,0.7s-0.3,0.4-0.5,0.4c-2.7,0.8-2.4,9.8,0.7,23c1,4.5,2.1,7.4,2.7,8.5c0.1-0.6,0.1-1.5,0.2-2.1
		c0.1-1.7,0.1-3.1,1.3-3.1c0.2,0,0.4,0.1,0.6,0.2c1.2,0.7,1.5,2.5,1.6,3.9c0.1,2.9-0.4,5.2-1.5,6.3
		C147.7,172.2,147.1,172.5,146.4,172.5z"/>
	<path class="st8" d="M155,137c-0.6,0-1.2-0.2-1.7-0.5c-1.1-0.7-2.3-2-3.1-3.7c-1-1.8-1.4-3.2-1.7-4.5c0,0,0,0,0-0.1
		c-0.1-1.3,0-2.8,0-2.9c0,0,0,0,0-0.1c0-0.4,0.1-0.9,0.2-1.4c0.4-2.5,2-3.8,3.4-3.8c0.6,0,1.1,0.2,1.5,0.7c0.4,0.4,0.9,1.3,0.7,2.9
		c-0.1,0.6-0.2,1.3-0.4,2c-0.2,1-0.4,2-0.4,3c-0.1,2.3,0.4,3.3,2.1,4.8c1.2,1.1,1.3,1.9,1.1,2.4C156.5,136.6,155.8,137,155,137
		L155,137z"/>
	<path class="st9" d="M155.1,134.2c-1.9-1.6-2.5-2.9-2.4-5.5c0-1.1,0.2-2.2,0.4-3.2c0.2-0.7,0.3-1.4,0.3-1.9
		c0.4-3.9-3.3-3.3-3.9,0.4c-0.1,0.5-0.2,0.9-0.2,1.4c0,0-0.1,1.5,0,2.8c0.2,1.3,0.7,2.5,1.6,4.2c0.9,1.7,1.9,2.8,2.8,3.3
		C155.2,136.7,157.1,136,155.1,134.2z"/>
	<path class="st9" d="M149,124.1c-2.4,1.6-9.1,6.1-15.2,10.5c-3.5,2.5-6.5,5.5-8.9,8.5c-2.1,2.7-4.4,6.2-5,9.8
		c-0.8,4.3,1.2,10.3,6.1,10.7c1.3,0.1,2.6-0.1,3.8-0.4c0.8-0.2,1.6-0.5,1.4-1.2c-0.2-0.7-1.6-0.6-2.9-0.4c-7.4,1-5.4-8-3.4-12
		c0.5-1,1.2-2.1,2-3.3c1.8-2.7,5.2-6.1,8.9-9.3c-1.9,5.1,0.6,13.7,1.9,17.9c1.3,4.4,3,9.2,4.7,12.5c3.4,6.9,6.9,5,6.6-1.9
		c-0.1-1.6-0.5-2.8-1.2-3.2c-1.1-0.7-0.2,5.1-1.4,5.5c-1.3,0.4-3-6.2-3.8-9.5s-5.2-22.4-0.1-24c0,0-0.5-1.2-2.2-1
		c3.9-3.2,7.4-5.8,8.8-6.9C149.1,127.9,149,124.4,149,124.1z"/>
</g>
<g>
	<defs>
		<rect id="SVGID_9_" x="142.7" y="137.7" width="39.1" height="22.7"/>
	</defs>
	<clipPath id="SVGID_10_">
		<use xlink:href="#SVGID_9_"  style="overflow:visible;"/>
	</clipPath>
	<g id="logotortazamarron.psd_2_" class="st10">
		<g>
			<defs>
				<rect id="SVGID_11_" x="142.7" y="136.6" width="40.1" height="40.7"/>
			</defs>
			<clipPath id="SVGID_12_">
				<use xlink:href="#SVGID_11_"  style="overflow:visible;"/>
			</clipPath>
			<g style="clip-path:url(#SVGID_12_);">
				
					<image style="overflow:visible;" width="200" height="203" xlink:href="91185167.png"  transform="matrix(0.2003 0 0 0.2003 142.7474 136.6383)">
				</image>
			</g>
		</g>
	</g>
</g>
</svg>
