<?xml version="1.0" encoding="utf-8"?>
<!-- Generator: Adobe Illustrator 23.0.5, SVG Export Plug-In . SVG Version: 6.00 Build 0)  -->
<svg version="1.1" id="Capa_1" xmlns="http://www.w3.org/2000/svg" xmlns:xlink="http://www.w3.org/1999/xlink" x="0px" y="0px"
	 viewBox="0 0 24 24" style="enable-background:new 0 0 24 24;" xml:space="preserve">
<style type="text/css">
	.st0{fill:#0DC143;}
	.st1{fill:#FFFFFF;}
</style>
<circle class="st0" cx="12" cy="12" r="12"/>
<path class="st1" d="M12,4.3c-4.2,0-7.6,3.4-7.6,7.6c0,1.3,0.4,2.7,1,3.8l-1,3.8l4-0.9c1.1,0.6,2.4,0.9,3.7,0.9h0
	c4.2,0,7.6-3.4,7.6-7.6c0-2-0.8-4-2.2-5.4C16,5.1,14.1,4.3,12,4.3z M12,5.9c1.6,0,3.2,0.6,4.3,1.8c1.2,1.2,1.8,2.7,1.8,4.3
	c0,3.4-2.7,6.1-6.1,6.1c-1,0-2-0.3-2.9-0.7l-0.5-0.3L8,17.2l-1.5,0.4l0.4-1.4L7,15.6L6.7,15c-0.5-0.9-0.8-2-0.8-3.1
	C5.9,8.6,8.6,5.9,12,5.9z M9.3,8.5c-0.1,0-0.3,0-0.5,0.2c-0.2,0.2-0.7,0.7-0.7,1.6s0.7,1.8,0.8,2c0.1,0.1,1.3,2.1,3.3,2.9
	c1.6,0.6,1.9,0.5,2.3,0.5c0.4,0,1.1-0.5,1.3-0.9c0.2-0.4,0.2-0.8,0.1-0.9c0-0.1-0.2-0.1-0.4-0.2c-0.2-0.1-1.1-0.6-1.3-0.6
	s-0.3-0.1-0.4,0.1c-0.1,0.2-0.5,0.6-0.6,0.7c-0.1,0.1-0.2,0.1-0.4,0c-0.2-0.1-0.8-0.3-1.5-0.9c-0.6-0.5-1-1.1-1.1-1.3
	c-0.1-0.2,0-0.3,0.1-0.4c0.1-0.1,0.2-0.2,0.3-0.3c0.1-0.1,0.1-0.2,0.2-0.3c0.1-0.1,0-0.2,0-0.3c0-0.1-0.4-1-0.6-1.4
	C10,8.5,9.8,8.5,9.7,8.5C9.6,8.5,9.4,8.5,9.3,8.5z"/>
</svg>
