<?xml version="1.0" encoding="utf-8"?>
<!-- Generator: Adobe Illustrator 23.0.5, SVG Export Plug-In . SVG Version: 6.00 Build 0)  -->
<svg version="1.1" id="Capa_1" xmlns="http://www.w3.org/2000/svg" xmlns:xlink="http://www.w3.org/1999/xlink" x="0px" y="0px"
	 viewBox="0 0 40 40" style="enable-background:new 0 0 40 40;" xml:space="preserve">
<style type="text/css">
	.st0{fill:none;stroke:#000000;stroke-width:2;stroke-linecap:round;stroke-linejoin:round;stroke-miterlimit:10;}
</style>
<g>
	<path class="st0" d="M17.18,10.73c0,0-2.45-1.59-1.64-4.35s3.27-3.93,3.27-3.93s-0.15,3.58,2.66,3.37c2.81-0.2,4.19,0.36,4.34,1.99
		c0.15,1.63-0.31,2.65-1.38,2.91"/>
	<polyline class="st0" points="34.63,25.41 34.63,33.11 5.83,33.11 5.83,27.59 	"/>
	<path class="st0" d="M7.05,18.62c-1.63,0-2.96,1.12-2.96,2.49v2.84c0,0-0.2,3.52,4.19,3.78s4.14-3.21,7.15-1.63
		c1.52,0.79,1.58,3.7,4.49,1.64c2.16-1.53,3.06-0.96,4.19,1.02s2.86,1.89,4.09,1.64c1.23-0.26,2.15-0.95,3.06-2.41
		c0.92-1.46,2.25-2.32,3.37-2.58c1.12-0.26,1.33-1.2,1.33-3.01v-1.29c0-1.38-1.33-2.49-2.96-2.49H7.05z"/>
	<path class="st0" d="M3.73,37.55h32.54c0.84,0,1.52-0.68,1.52-1.52v-1c0-0.84-0.68-1.52-1.52-1.52H3.73
		c-0.84,0-1.52,0.68-1.52,1.52v1C2.21,36.87,2.89,37.55,3.73,37.55z"/>
	<path class="st0" d="M27.56,10.73H13.66c-1.43,0-2.59,1.16-2.59,2.59v5.31h19.07v-5.31C30.15,11.89,28.99,10.73,27.56,10.73z"/>
</g>
</svg>
