<?xml version="1.0" encoding="utf-8"?>
<!-- Generator: Adobe Illustrator 23.0.5, SVG Export Plug-In . SVG Version: 6.00 Build 0)  -->
<svg version="1.1" id="Capa_1" xmlns="http://www.w3.org/2000/svg" xmlns:xlink="http://www.w3.org/1999/xlink" x="0px" y="0px"
	 viewBox="0 0 40 40" style="enable-background:new 0 0 40 40;" xml:space="preserve">
<style type="text/css">
	.st0{fill:none;stroke:#000000;stroke-width:2;stroke-linecap:round;stroke-linejoin:round;stroke-miterlimit:10;}
</style>
<g>
	<polygon class="st0" points="30.71,22.02 27.48,35.66 12.52,35.66 9.01,22.02 	"/>
	<path class="st0" d="M31.99,18.66c0.13-0.69,0.19-1.41,0.19-2.14c0-6.73-5.45-12.18-12.18-12.18S7.82,9.79,7.82,16.52
		c0,0.73,0.06,1.45,0.19,2.14"/>
	<path class="st0" d="M30.95,18.34H9.05c-1.02,0-1.84,0.82-1.84,1.84v0c0,1.02,0.82,1.84,1.84,1.84h21.89
		c1.02,0,1.84-0.82,1.84-1.84v0C32.79,19.16,31.96,18.34,30.95,18.34z"/>
	<path class="st0" d="M10.92,29.47c0,0,3.39-3.57,5.67-0.63s4.29,1.84,6.44-0.27s5.18-1.03,5.81,1.34"/>
	<path class="st0" d="M24.32,18.34c0.33-0.46,0.53-1.04,0.53-1.65c0-1.57-1.27-2.84-2.84-2.84s-2.84,1.27-2.84,2.84
		c0,0.61,0.2,1.19,0.53,1.65"/>
	<path class="st0" d="M23.4,14.22c0,0-0.34-2.96,2.6-4.24"/>
</g>
</svg>
