<?xml version="1.0" encoding="utf-8"?>
<!-- Generator: Adobe Illustrator 23.0.5, SVG Export Plug-In . SVG Version: 6.00 Build 0)  -->
<svg version="1.1" id="Capa_1" xmlns="http://www.w3.org/2000/svg" xmlns:xlink="http://www.w3.org/1999/xlink" x="0px" y="0px"
	 viewBox="0 0 40 40" style="enable-background:new 0 0 40 40;" xml:space="preserve">
<style type="text/css">
	.st0{fill:none;stroke:#000000;stroke-width:2;stroke-linecap:round;stroke-linejoin:round;stroke-miterlimit:10;}
</style>
<g>
	<path class="st0" d="M18.79,25.51c-1.73,0-12.49-5.9-9.71-9.02c1.48-1.66,5.18-0.73,6.24-0.35c3.82,1.39,6.45,3.73,7.63,5.2
		c2.78,3.47,4.16,11.45-3.12,9.37S5.26,23.43,4.56,19.61s0-6.94,2.43-8.33s9.89-0.87,13.88,1.73c4.77,3.11,9.19,8.5,9.54,13.7
		s-1.73,9.37-9.71,8.67C12.71,34.71,3,26.38,3,26.38l3.12-3.47"/>
	<path class="st0" d="M28.57,33.38l6-4.92c0,0,2.43-1.39,2.43-5.55S35.61,12.5,30.41,8.34S20,4.17,17.92,4.87S7.86,10.93,7.86,10.93
		"/>
</g>
</svg>
