<?xml version="1.0" encoding="utf-8"?>
<!-- Generator: Adobe Illustrator 23.0.5, SVG Export Plug-In . SVG Version: 6.00 Build 0)  -->
<svg version="1.1" id="Capa_1" xmlns="http://www.w3.org/2000/svg" xmlns:xlink="http://www.w3.org/1999/xlink" x="0px" y="0px"
	 viewBox="0 0 40 40" style="enable-background:new 0 0 40 40;" xml:space="preserve">
<style type="text/css">
	.st0{fill:none;stroke:#000000;stroke-width:2;stroke-linecap:round;stroke-linejoin:round;stroke-miterlimit:10;}
	.st1{fill:#FFD900;stroke:#000000;stroke-width:2;stroke-miterlimit:10;}
	.st2{fill:none;stroke:#000000;stroke-width:2;stroke-miterlimit:10;}
</style>
<g>
	<path class="st0" d="M37.12,14.89L35.48,31.1l-30.5,5.65l-1.9-11.8c0,0-0.42-2.56,1.06-4.69C6.32,17.1,16.36,4.08,16.36,4.08
		s0.71-1.23,3.31-0.69S37.26,9.58,37.12,14.89z"/>
	<path class="st1" d="M2.92,23.03"/>
	<line class="st0" x1="33.82" y1="20" x2="35.97" y2="19.44"/>
	<line class="st0" x1="21.42" y1="23.25" x2="24.08" y2="22.55"/>
	<line class="st0" x1="3.57" y1="27.93" x2="15.04" y2="24.92"/>
	<line class="st0" x1="25.26" y1="27.15" x2="4.21" y2="31.96"/>
	<line class="st0" x1="35.52" y1="24.8" x2="29.13" y2="26.26"/>
	<path class="st0" d="M36.85,13.92l-3.42,1.23c-2.04,0.73-0.27,3.06-0.17,4.29c0.1,1.23-0.72,2.83-2.91,2.44
		c-2.15-0.38-1.55,1.58-1.55,1.58s1.05,4.23-1.42,4.4c-2.47,0.17-2.56-3.29-2.56-3.29s-0.29-2.96-0.87-4.65s-3.6-2.09-3.78,0.38
		s1.22,5.67-2.02,6.63c-3.16,0.93-2.7-2.18-2.97-4.31s-3.3-1.35-3.3-1.35l-7.75,1.99c-0.45,0.06-2.53,0.19-0.13-3.02l3.3-4.48
		l8.34-10.94c0,0,1.21-2.49,4.81-1.19s10.35,4,13.37,6.58C36.86,12.8,36.85,13.92,36.85,13.92z"/>
	<circle class="st2" cx="22.15" cy="10.38" r="2.87"/>
</g>
</svg>
