<?xml version="1.0" encoding="utf-8"?>
<!-- Generator: Adobe Illustrator 23.0.5, SVG Export Plug-In . SVG Version: 6.00 Build 0)  -->
<svg version="1.1" id="Capa_1" xmlns="http://www.w3.org/2000/svg" xmlns:xlink="http://www.w3.org/1999/xlink" x="0px" y="0px"
	 viewBox="0 0 40 40" style="enable-background:new 0 0 40 40;" xml:space="preserve">
<style type="text/css">
	.st0{fill:none;stroke:#000000;stroke-width:2;stroke-linecap:round;stroke-linejoin:round;stroke-miterlimit:10;}
</style>
<g>
	<path class="st0" d="M24.59,23.32l11.49-10.2c0,0,2.34-1.93,0.95-4.3s-3.41-2.38-4.98-2.06c0,0-1.29-2.56-3.69-2.86
		s-3.6,0.89-3.6,0.89s-1.59-1.66-3.56-1.53s-3.34,0.98-4.42,2.63c0,0-4.99-1.87-6.5,3.81c0,0-5.12,0.11-4.63,6
		c0,0-4.77,2.85-1.84,7.36c0,0-3.46,4.48,0.97,7.57c0,0-1.44,3.33,1.32,5.38c2.76,2.05,5.13-0.86,7.83-3.26S24.59,23.32,24.59,23.32
		z"/>
	<path class="st0" d="M34.43,14.59c-0.64-0.72-1.37-1.38-2.17-1.97c-6.58-4.9-15.88-3.54-20.78,3.04
		c-4.27,5.73-3.79,13.53,0.75,18.68"/>
	<path class="st0" d="M16.87,16.47c0,0-5.05,3.45-3.54,9.7"/>
</g>
</svg>
