<?xml version="1.0" encoding="utf-8"?>
<!-- Generator: Adobe Illustrator 23.0.5, SVG Export Plug-In . SVG Version: 6.00 Build 0)  -->
<svg version="1.1" id="Capa_1" focusable="false" xmlns="http://www.w3.org/2000/svg" xmlns:xlink="http://www.w3.org/1999/xlink"
	 x="0px" y="0px" viewBox="0 0 15 15" style="enable-background:new 0 0 15 15;" xml:space="preserve">
<style type="text/css">
	.st0{fill:#FFFFFF;}
</style>
<circle cx="7.5" cy="7.5" r="7.5"/>
<path class="st0" d="M12.2,6.6c-0.9,0-1.8-0.3-2.6-0.8v3.7c0,1.9-1.5,3.4-3.4,3.4s-3.4-1.5-3.4-3.4c0-1.9,1.5-3.4,3.4-3.4
	c0.2,0,0.3,0,0.5,0V8C5.9,7.7,5,8.2,4.7,9c-0.3,0.8,0.2,1.7,1,2c0.8,0.3,1.7-0.2,2-1c0-0.2,0.1-0.3,0.1-0.5V2.2h1.8
	c0,0.2,0,0.3,0,0.5l0,0c0.1,0.7,0.5,1.3,1.1,1.7c0.4,0.3,0.9,0.4,1.4,0.4V6.6z"/>
</svg>
