<?xml version="1.0" encoding="utf-8"?>
<!-- Generator: Adobe Illustrator 23.0.5, SVG Export Plug-In . SVG Version: 6.00 Build 0)  -->
<svg version="1.1" id="Capa_1" xmlns="http://www.w3.org/2000/svg" xmlns:xlink="http://www.w3.org/1999/xlink" x="0px" y="0px"
	 viewBox="0 0 40 40" style="enable-background:new 0 0 40 40;" xml:space="preserve">
<style type="text/css">
	.st0{fill:none;stroke:#000000;stroke-width:2;stroke-linecap:round;stroke-linejoin:round;stroke-miterlimit:10;}
</style>
<g>
	<polyline class="st0" points="34.63,22.77 34.63,34.01 5.83,34.01 5.83,24.73 	"/>
	<path class="st0" d="M7.05,14.7c-1.63,0-2.96,1.33-2.96,2.96v3.37c0,0-0.2,4.19,4.19,4.49c4.39,0.31,2.94-2.04,5.36-1.94
		c2.34,0.09,1.21,2.17,2.04,3.46c1.56,2.43,3.56,0.43,4.55-1.28c1.75-2.99,4.21-1.28,4.65,1.44c0.42,2.57,1.83,3.16,3.79,2.72
		c1.88-0.43,1.67-2.35,2.59-4.08c0.92-1.74,2.25-2.76,3.37-3.06c1.12-0.31,1.33-1.43,1.33-3.58v-1.53c0-1.63-1.33-2.96-2.96-2.96
		H7.05z"/>
	<path class="st0" d="M12.31,14.7c0,0-1.74-0.33-1.74-2.2c0-1.87,1.69-2.32,5.46-2.27c3.78,0.05,10.52,0,10.52,0s2.66,0.19,2.66,2.4
		c0,2.07-2.04,2.07-2.04,2.07"/>
	<path class="st0" d="M16.55,10.23c0,0-2.45-1.59-1.64-4.35s3.27-3.93,3.27-3.93s-0.15,3.58,2.66,3.37c2.81-0.2,4.19,0.36,4.34,1.99
		s-0.31,2.65-1.38,2.91"/>
	<path class="st0" d="M3.73,38.05h32.54c0.84,0,1.52-0.68,1.52-1.52v-1c0-0.84-0.68-1.52-1.52-1.52H3.73
		c-0.84,0-1.52,0.68-1.52,1.52v1C2.21,37.37,2.89,38.05,3.73,38.05z"/>
</g>
</svg>
